{"glyphs":{"0":{"ha":610,"x_min":18,"x_max":590,"o":"m 575 638 q 589 539 588 590 q 581 436 590 488 q 550 337 571 385 q 497 249 529 289 q 417 178 463 206 q 322 146 372 151 q 219 161 272 140 q 115 236 165 182 q 40 376 61 296 q 27 539 18 457 q 77 696 36 621 q 189 822 118 771 q 232 849 210 838 q 277 863 254 860 q 322 859 300 865 q 364 832 344 853 q 368 828 367 829 q 371 825 369 826 q 376 824 372 824 q 383 823 379 824 q 393 822 386 822 q 508 756 458 808 q 575 638 558 704 m 388 515 q 388 623 399 586 q 355 661 376 660 q 309 628 333 663 q 268 521 285 593 q 258 385 247 429 q 294 341 269 340 q 346 385 318 342 q 388 515 374 429 z "},"1":{"ha":389,"x_min":8,"x_max":376,"o":"m 374 742 q 376 715 376 726 q 376 693 376 703 q 376 685 376 690 q 374 664 375 681 q 369 615 372 647 q 358 526 365 583 q 342 383 351 469 q 318 171 332 296 q 304 153 315 160 q 277 142 294 146 q 228 142 260 139 q 179 151 197 144 q 151 167 161 158 q 136 189 140 176 q 138 303 136 243 q 140 419 139 354 q 142 556 140 485 l 142 560 q 89 589 115 569 q 43 632 63 608 q 16 680 24 656 q 21 725 8 704 q 76 786 56 763 q 112 824 97 810 q 136 847 126 839 q 157 860 146 854 q 182 867 168 864 q 213 872 196 871 q 285 859 251 875 q 344 811 318 843 q 363 778 356 796 q 374 742 371 761 z "},"2":{"ha":567,"x_min":15,"x_max":556,"o":"m 114 843 q 240 905 175 890 q 363 909 306 919 q 467 866 421 899 q 534 785 513 833 q 549 676 556 736 q 494 549 542 615 q 458 493 483 529 q 401 417 432 457 q 342 340 371 376 q 297 283 314 303 q 337 293 310 286 q 391 307 364 300 q 440 319 418 314 q 465 326 461 325 q 513 319 493 335 q 541 276 532 303 q 547 219 550 250 q 526 171 543 189 q 501 151 515 158 q 471 138 488 143 q 387 124 442 129 q 273 117 332 118 q 162 119 214 115 q 88 133 110 122 q 31 188 46 151 q 22 267 15 225 q 49 331 28 296 q 107 406 71 367 q 155 460 124 425 q 220 533 186 494 q 283 606 254 571 q 324 664 313 642 q 329 681 328 672 q 326 694 331 690 q 308 689 321 697 q 272 653 296 681 q 213 617 246 624 q 147 618 179 610 q 91 648 115 626 q 58 700 67 669 q 60 767 49 731 q 114 843 72 804 z "},"3":{"ha":589,"x_min":15,"x_max":568,"o":"m 110 839 q 226 902 158 875 q 367 932 294 929 q 440 923 404 933 q 503 891 475 913 q 549 838 532 869 q 567 768 567 807 q 556 703 568 732 q 526 649 544 674 q 486 601 508 624 q 446 556 464 579 q 431 526 426 535 q 463 494 436 517 q 534 388 507 446 q 546 263 561 331 q 505 187 535 218 q 435 138 475 156 q 349 114 394 119 q 260 117 303 108 q 188 133 225 122 q 117 160 150 144 q 58 197 83 176 q 22 243 33 218 q 17 281 15 258 q 40 322 19 304 q 103 342 72 350 q 163 318 133 335 q 217 295 190 306 q 269 282 243 285 q 307 281 283 279 q 349 290 331 282 q 372 311 367 297 q 357 346 378 325 q 294 394 329 374 q 231 443 258 415 q 191 509 199 472 q 200 582 183 546 q 242 638 215 614 q 294 683 269 661 q 315 708 319 707 q 285 699 310 708 q 231 669 250 683 q 207 651 213 654 q 152 636 179 636 q 103 649 125 636 q 68 683 82 661 q 53 731 54 704 q 65 785 51 757 q 110 839 78 814 z "},"4":{"ha":672,"x_min":11,"x_max":675,"o":"m 429 739 q 480 761 440 757 q 563 758 519 765 q 640 733 606 750 q 675 690 674 715 q 588 142 615 419 q 575 129 585 135 q 549 119 567 124 q 500 117 532 115 q 449 123 468 118 q 421 135 431 128 q 406 150 408 142 q 404 186 404 165 q 403 228 403 204 q 403 281 403 251 q 329 267 367 274 q 253 254 292 261 q 148 258 196 244 q 67 303 100 271 q 23 384 35 335 q 26 497 11 433 q 63 597 36 540 q 119 711 89 654 q 179 819 150 768 q 225 901 208 871 q 290 915 250 922 q 367 885 331 908 q 425 828 403 863 q 432 760 447 794 q 354 637 392 699 q 281 507 317 575 q 278 469 265 478 q 313 462 290 461 q 363 469 336 463 q 406 478 390 475 q 410 572 407 526 q 417 653 414 617 q 424 712 421 689 q 429 739 426 735 z "},"5":{"ha":568,"x_min":17,"x_max":544,"o":"m 260 657 q 256 643 258 654 q 251 618 254 632 q 374 604 321 622 q 463 553 426 586 q 520 475 500 519 q 542 382 540 431 q 529 284 544 333 q 479 192 514 235 q 376 116 438 140 q 251 93 315 92 q 130 123 188 94 q 38 207 72 151 q 23 278 17 240 q 50 341 29 317 q 101 365 71 365 q 156 321 131 365 q 208 276 175 292 q 275 263 240 260 q 335 288 308 264 q 371 342 361 311 q 369 402 381 372 q 319 449 358 432 q 235 451 281 465 q 206 442 208 442 q 154 449 182 439 q 102 479 126 460 q 63 525 78 499 q 53 582 49 551 q 62 648 57 615 q 76 712 67 681 q 100 772 85 743 q 140 826 115 801 q 252 876 189 864 q 376 885 315 888 q 444 876 418 882 q 475 867 469 869 q 503 819 496 856 q 502 744 510 782 q 472 680 494 707 q 410 660 449 653 q 376 669 399 664 q 328 677 353 675 q 284 676 304 679 q 260 657 264 672 z "},"6":{"ha":593,"x_min":21,"x_max":582,"o":"m 565 468 q 573 371 582 418 q 537 282 564 324 q 468 207 510 240 q 378 152 426 174 q 280 122 331 131 q 183 124 229 114 q 91 169 125 136 q 40 248 57 203 q 22 346 24 293 q 28 450 21 399 q 72 624 38 538 q 154 790 107 711 q 190 843 171 821 q 233 876 210 865 q 285 883 257 886 q 347 860 313 881 q 401 797 383 836 q 396 713 419 758 q 364 660 379 686 q 335 608 349 635 q 404 599 368 608 q 472 573 440 590 q 528 529 503 556 q 565 468 553 503 m 261 432 q 240 367 240 389 q 250 340 239 346 q 280 340 261 333 q 316 358 299 346 q 346 385 333 369 q 357 412 358 400 q 335 430 356 424 q 268 431 315 436 l 267 431 q 261 432 263 431 z "},"7":{"ha":542,"x_min":7,"x_max":531,"o":"m 507 565 q 524 548 518 565 q 530 508 529 531 q 526 464 531 485 q 511 436 521 443 q 474 433 494 435 q 433 428 456 431 q 382 424 410 426 l 278 129 q 260 111 272 117 q 231 103 249 104 q 182 110 213 101 q 137 130 153 118 q 114 153 121 142 q 104 179 106 165 q 121 244 111 208 q 140 316 129 275 q 164 406 151 357 q 111 402 132 403 q 88 403 90 401 q 64 435 72 408 q 54 493 56 463 q 60 549 53 524 q 85 579 67 575 l 207 574 q 211 590 210 582 q 215 606 213 597 q 218 651 228 635 q 189 676 208 668 q 144 686 169 685 q 103 686 119 688 q 42 708 65 682 q 13 769 19 733 q 18 843 7 806 q 61 901 29 881 q 85 912 72 908 q 111 918 97 915 q 176 923 140 922 q 249 918 213 924 q 319 901 285 913 q 382 872 354 890 q 447 797 426 844 q 464 696 468 750 q 463 678 464 688 q 458 655 461 669 q 448 619 454 640 q 431 568 442 599 l 507 565 l 507 565 z "},"8":{"ha":574,"x_min":8,"x_max":556,"o":"m 321 881 q 394 877 357 883 q 464 853 432 871 q 519 808 496 836 q 550 738 542 779 q 554 675 556 707 q 541 615 553 643 q 508 565 529 586 q 451 538 486 544 q 497 487 478 517 q 522 421 515 457 q 517 323 532 371 q 471 235 503 275 q 395 167 439 196 q 301 123 351 138 q 201 110 251 108 q 106 138 150 113 q 32 217 49 168 q 25 318 15 265 q 63 424 35 371 q 125 517 92 476 q 33 590 57 550 q 15 668 8 629 q 53 744 22 707 q 129 810 85 781 q 224 858 174 839 q 321 881 275 876 m 304 317 q 331 347 321 329 q 340 381 340 364 q 331 415 340 399 q 299 442 321 432 q 274 397 288 418 q 246 354 261 376 q 226 311 228 326 q 233 292 224 296 q 262 294 243 288 q 304 317 281 300 m 244 701 q 219 677 219 689 q 234 653 219 665 q 274 631 249 642 q 324 610 299 619 q 369 592 349 600 q 399 578 390 583 q 394 608 393 593 q 397 639 394 624 q 405 671 400 653 q 407 704 410 689 q 385 733 403 726 q 343 736 367 739 q 292 723 319 733 q 244 701 265 713 z "},"9":{"ha":628,"x_min":18,"x_max":622,"o":"m 438 818 q 492 817 460 825 q 555 794 525 810 q 603 758 585 779 q 617 714 622 736 q 500 437 550 579 q 415 146 450 294 q 401 133 411 139 q 378 127 393 129 q 336 129 363 125 q 292 142 308 133 q 269 157 276 150 q 258 176 260 165 q 260 183 260 179 q 260 191 260 186 q 261 203 260 196 q 270 274 264 239 q 283 347 276 308 q 217 323 253 332 q 146 317 181 314 q 81 340 111 321 q 33 401 51 360 q 18 488 18 442 q 31 579 18 533 q 83 692 47 638 q 166 788 118 747 q 271 850 214 829 q 388 858 328 871 q 438 818 424 847 m 367 663 q 262 626 299 651 q 211 576 225 601 q 205 533 197 551 q 235 519 213 515 q 292 554 258 522 q 367 663 326 586 z "},"\u0000":{"ha":0,"x_min":0,"x_max":0,"o":""},"\r":{"ha":469,"x_min":0,"x_max":0,"o":""}," ":{"ha":469,"x_min":0,"x_max":0,"o":""},"E":{"ha":608,"x_min":21,"x_max":586,"o":"m 542 294 q 560 271 551 290 q 575 226 569 251 q 583 170 581 200 q 585 115 586 140 q 577 70 583 89 q 558 47 571 51 l 117 46 q 114 47 117 46 q 63 63 82 50 q 40 111 43 75 q 31 263 31 186 q 38 424 32 340 q 26 445 32 428 q 24 508 21 463 q 35 572 26 553 q 50 599 43 592 q 60 737 54 678 q 68 818 65 796 q 63 842 65 828 q 58 876 60 856 q 60 926 57 907 q 68 956 64 944 q 79 972 74 968 q 150 982 113 976 q 222 991 182 986 q 306 1001 263 996 q 390 1012 349 1007 q 466 1020 432 1017 q 522 1025 500 1024 q 549 1025 544 1026 q 574 978 564 1017 q 584 897 583 940 q 576 818 585 854 q 549 776 568 782 l 314 785 l 286 614 l 289 614 q 376 620 333 617 q 453 626 418 624 q 510 628 488 628 q 536 628 532 629 q 563 582 553 619 q 574 501 572 544 q 567 422 576 458 q 538 379 558 385 q 394 388 465 383 q 251 399 324 392 q 240 328 244 363 q 233 258 236 293 l 233 250 q 274 257 253 253 q 318 264 296 261 q 396 277 357 271 q 466 288 435 283 q 518 294 497 293 q 542 294 539 296 z "},"F":{"ha":646,"x_min":13,"x_max":635,"o":"m 601 974 q 626 925 618 964 q 633 843 635 886 q 617 765 631 800 q 581 728 604 731 l 318 758 q 310 665 314 713 q 304 572 307 618 q 372 574 339 574 q 431 574 404 574 q 474 573 457 574 q 493 571 490 572 q 510 523 506 561 q 513 442 515 485 q 500 363 510 399 q 472 324 490 328 l 289 349 q 280 191 283 269 q 274 33 276 113 q 261 14 271 22 q 235 1 253 7 q 186 -6 217 -6 q 137 1 154 -6 q 108 15 119 7 q 92 36 96 24 q 86 140 89 85 q 81 250 83 189 q 76 379 79 311 l 63 381 q 53 394 57 383 q 47 421 50 404 q 47 469 44 438 q 59 539 50 519 q 72 561 68 558 q 71 689 71 631 q 72 788 71 747 l 36 792 q 24 806 29 794 q 16 832 19 815 q 15 881 13 849 q 24 930 18 911 q 36 958 29 949 q 51 974 43 969 q 135 975 90 974 q 219 977 172 976 q 318 979 267 978 q 417 980 368 979 q 505 980 465 981 q 571 978 544 979 q 601 974 597 976 z "},"G":{"ha":818,"x_min":15,"x_max":799,"o":"m 532 704 q 440 713 489 719 q 350 683 390 707 q 288 628 311 663 q 256 554 265 593 q 249 519 251 538 q 250 483 247 501 q 297 377 257 418 q 392 322 336 336 q 448 313 418 315 q 507 317 478 311 q 577 346 560 325 q 587 387 594 367 q 552 419 579 407 q 490 422 525 431 q 458 414 471 419 q 425 414 446 408 q 390 430 408 418 q 361 471 372 442 q 372 545 350 517 q 431 589 394 574 q 576 611 501 619 q 706 564 650 603 q 769 495 747 535 q 794 413 790 456 q 787 326 799 369 q 751 246 775 283 q 656 155 714 188 q 531 112 597 122 q 399 109 465 101 q 276 139 332 117 q 141 226 199 171 q 51 356 83 282 q 17 519 15 438 q 51 672 19 600 q 138 803 82 744 q 264 901 193 863 q 415 955 335 940 q 576 953 494 969 q 641 931 611 946 q 683 885 671 915 q 691 820 694 856 q 668 756 688 785 q 615 710 649 726 q 532 704 581 693 z "},"H":{"ha":725,"x_min":17,"x_max":711,"o":"m 463 917 q 510 958 472 943 q 592 972 549 972 q 671 954 635 971 q 711 903 707 938 l 661 94 q 649 75 658 83 q 622 63 640 68 q 574 58 604 57 q 524 67 542 60 q 496 82 507 74 q 479 104 483 92 q 476 192 478 144 q 474 285 475 232 q 469 400 472 339 q 362 392 417 393 q 236 389 307 390 q 222 249 229 318 q 206 110 215 181 q 193 93 203 99 q 167 83 185 86 q 118 82 149 79 q 68 92 86 85 q 40 107 50 100 q 25 126 29 115 q 23 165 24 132 q 21 247 22 197 q 19 358 19 296 q 17 485 18 421 q 17 612 17 550 q 17 724 17 674 q 19 808 18 775 q 24 849 21 842 q 49 875 29 864 q 96 892 69 886 q 152 897 122 897 q 208 889 182 896 q 251 868 233 882 q 272 833 269 854 q 264 725 268 779 q 257 615 260 671 q 360 603 310 608 q 464 593 411 597 q 461 710 463 654 q 460 811 460 767 q 460 883 460 856 q 463 917 461 911 z "},"I":{"ha":275,"x_min":18,"x_max":268,"o":"m 268 903 q 244 506 260 704 q 207 110 229 308 q 193 92 204 99 q 165 80 183 85 q 117 78 147 75 q 67 88 85 81 q 40 104 50 96 q 25 126 29 114 q 26 244 26 182 q 26 366 26 297 q 25 508 26 435 q 23 651 25 581 q 20 778 21 721 q 19 872 19 835 q 19 914 18 908 q 45 944 25 932 q 92 962 65 956 q 148 969 118 968 q 203 962 178 969 q 247 940 229 954 q 268 903 265 925 z "},"J":{"ha":713,"x_min":13,"x_max":690,"o":"m 690 521 q 669 353 690 438 q 605 201 649 269 q 493 90 561 133 q 332 47 425 47 q 228 64 279 47 q 135 112 178 81 q 64 187 93 143 q 25 285 35 231 q 28 415 13 350 q 81 538 44 479 q 119 585 99 565 q 161 613 139 606 q 219 613 192 621 q 265 586 247 604 q 288 544 283 568 q 279 496 293 519 q 260 467 271 485 q 239 432 249 450 q 222 396 229 414 q 214 365 215 378 q 235 294 211 325 q 311 257 258 264 q 365 266 342 253 q 406 302 389 279 q 435 353 424 325 q 450 410 446 382 q 459 509 458 454 q 454 619 460 564 q 437 727 449 675 q 408 819 425 779 q 404 832 406 826 q 401 840 403 838 q 401 901 393 874 q 428 949 410 929 q 474 978 447 968 q 530 986 501 988 q 585 971 558 985 q 629 929 611 957 q 663 847 650 901 q 681 733 675 793 q 689 614 688 672 q 690 521 690 556 z "},"K":{"ha":708,"x_min":24,"x_max":693,"o":"m 685 224 q 681 172 693 208 q 645 98 668 135 q 595 35 622 61 q 546 18 568 10 q 395 137 468 75 q 254 268 322 199 q 258 161 256 215 q 265 51 261 107 q 256 29 264 40 q 232 10 249 19 q 185 -1 215 1 q 133 -1 153 -6 q 103 13 114 4 q 83 35 89 21 q 53 216 65 125 q 35 401 42 307 q 26 596 28 496 q 24 806 24 696 q 26 918 24 874 q 31 969 28 963 q 58 1003 38 990 q 106 1020 79 1015 q 163 1022 133 1025 q 218 1009 193 1019 q 260 981 243 999 q 278 938 276 963 q 266 810 271 874 q 258 682 261 747 q 285 713 271 697 q 313 743 299 728 q 374 817 344 781 q 426 884 403 854 q 466 933 450 914 q 486 954 482 953 q 538 946 503 963 q 608 902 574 929 q 663 844 642 875 q 672 792 685 814 q 503 622 590 703 q 321 467 415 542 q 337 453 328 460 q 356 440 346 447 q 415 398 382 421 q 485 351 449 375 q 554 306 519 328 q 617 268 589 285 q 664 240 646 251 q 685 224 682 228 z "},"L":{"ha":526,"x_min":22,"x_max":503,"o":"m 457 225 q 481 201 471 221 q 496 155 490 182 q 502 99 501 128 q 498 44 503 69 q 483 4 493 19 q 457 -10 474 -11 q 310 -3 383 -6 q 164 0 238 0 q 150 -4 157 -3 q 136 -7 143 -6 q 85 -8 104 -12 q 54 6 67 -3 q 33 54 39 18 q 24 135 26 90 q 24 242 22 172 q 28 397 25 313 q 37 572 32 482 q 47 738 42 661 q 59 868 53 814 q 71 936 65 922 q 122 974 82 964 q 204 978 161 985 q 282 950 247 972 q 317 890 317 928 q 286 672 299 764 q 264 515 274 581 q 248 405 254 449 q 238 331 242 361 q 232 282 235 301 q 228 246 229 263 l 224 200 q 242 203 232 201 q 263 207 251 204 q 329 217 296 213 q 390 224 363 221 q 435 227 417 226 q 457 225 453 228 z "},"M":{"ha":967,"x_min":28,"x_max":981,"o":"m 732 975 q 768 995 744 990 q 820 997 792 1000 q 878 983 849 994 q 930 956 907 972 q 967 916 953 939 q 978 867 981 893 q 915 467 942 667 q 868 64 888 268 q 854 44 865 53 q 826 32 844 38 q 778 29 808 26 q 728 39 746 32 q 701 56 711 46 q 686 79 690 65 q 688 294 686 182 q 694 515 690 406 q 658 441 675 478 q 627 375 640 404 q 605 326 614 346 q 594 303 596 307 q 560 276 588 286 q 499 265 532 267 q 438 272 467 264 q 400 301 408 281 q 356 371 379 335 q 310 444 336 403 q 257 529 285 485 q 252 317 253 422 q 256 106 251 213 q 243 85 253 94 q 218 69 235 76 q 172 60 201 63 q 121 63 140 57 q 90 75 101 68 q 72 94 76 83 q 58 219 64 153 q 47 348 53 276 q 38 497 40 419 q 31 648 33 574 q 28 782 28 722 q 28 881 28 842 q 32 928 29 921 q 78 970 42 954 q 158 992 115 986 q 240 990 201 997 q 289 963 278 983 q 472 583 382 772 q 601 780 536 682 q 732 975 665 878 z "},"N":{"ha":735,"x_min":17,"x_max":744,"o":"m 499 990 q 547 1033 508 1019 q 629 1044 586 1047 q 707 1020 672 1040 q 744 963 742 1000 q 674 97 700 529 q 661 76 671 85 q 635 63 653 69 q 586 58 617 57 q 537 66 554 58 q 508 82 519 74 q 492 106 496 92 q 460 152 482 119 q 408 233 439 185 q 339 342 378 281 q 256 475 300 403 l 246 88 q 233 68 243 76 q 208 54 225 61 q 160 46 190 47 q 109 51 128 44 q 79 65 90 58 q 63 86 67 74 q 54 208 58 143 q 47 334 51 264 q 38 479 42 404 q 28 626 33 554 q 21 758 24 699 q 17 855 18 817 q 19 900 17 893 q 58 938 26 924 q 128 956 89 953 q 203 949 167 958 q 256 914 239 939 q 280 874 269 892 q 301 835 290 856 q 324 790 311 815 q 358 728 338 765 q 410 640 379 692 q 486 517 440 589 q 487 676 486 594 q 489 825 488 757 q 493 939 490 893 q 499 990 496 985 z "},"O":{"ha":742,"x_min":10,"x_max":728,"o":"m 719 604 q 726 501 728 554 q 710 397 724 449 q 673 299 697 346 q 613 213 649 251 q 526 147 575 172 q 425 113 478 122 q 319 111 372 104 q 217 142 265 118 q 90 253 138 181 q 26 414 42 326 q 33 602 10 507 q 114 774 56 697 q 155 821 132 797 q 206 860 178 844 q 265 881 233 876 q 329 872 296 886 l 331 871 q 383 899 353 892 q 444 901 413 906 q 549 869 503 894 q 629 803 594 843 q 686 712 664 763 q 719 604 708 661 m 496 414 q 518 490 510 442 q 520 585 526 538 q 491 669 514 633 q 421 711 468 706 q 405 714 413 713 q 390 719 397 715 q 382 725 386 724 q 378 728 381 725 q 377 723 378 725 q 376 718 376 721 q 364 683 371 699 q 342 654 357 668 q 290 588 313 631 q 261 500 268 546 q 267 411 254 454 q 322 346 281 368 q 369 333 344 333 q 419 342 394 332 q 463 370 443 351 q 496 414 483 389 z "},"P":{"ha":719,"x_min":19,"x_max":699,"o":"m 553 964 q 665 849 632 914 q 696 717 699 785 q 659 584 693 650 q 570 464 625 518 q 445 373 515 410 q 300 328 375 336 q 296 272 297 307 q 294 201 294 238 q 292 129 293 164 q 290 72 292 94 q 269 40 288 53 q 224 20 250 26 q 167 13 197 14 q 112 19 138 13 q 68 38 86 25 q 49 71 50 51 q 44 119 47 78 q 38 223 42 160 q 31 365 35 286 q 25 525 28 443 q 21 687 22 607 q 20 832 19 767 q 24 940 21 897 q 33 994 26 983 q 72 1026 46 1015 q 129 1040 97 1038 q 233 1045 176 1046 q 346 1035 289 1044 q 456 1008 403 1026 q 553 964 510 990 m 314 524 q 381 555 350 529 q 431 615 411 581 q 458 686 451 649 q 455 756 465 724 q 414 809 444 788 q 328 831 383 831 q 321 754 324 796 q 317 671 318 713 q 315 591 315 629 q 314 524 314 553 z "},"Q":{"ha":853,"x_min":19,"x_max":833,"o":"m 644 874 q 732 791 694 839 q 793 687 769 743 q 825 569 817 631 q 825 446 833 508 q 774 294 814 367 q 667 167 735 221 q 686 126 676 147 q 707 85 696 106 q 699 56 711 71 q 669 32 688 42 q 631 19 651 22 q 600 26 611 17 q 585 47 592 35 q 569 72 578 58 q 550 103 561 86 q 395 78 474 74 q 247 117 317 83 q 124 210 178 150 q 42 351 69 269 q 22 485 19 418 q 49 615 25 553 q 117 733 74 678 q 222 835 161 789 q 332 895 272 874 q 454 897 392 917 q 497 924 472 919 q 549 921 522 928 q 600 901 575 914 q 644 874 625 888 m 547 444 q 563 407 556 425 q 576 369 569 389 q 624 465 613 411 q 625 572 636 519 q 583 671 614 625 q 503 744 551 717 q 480 708 494 724 q 448 681 465 693 q 411 659 431 669 q 374 636 392 649 q 288 544 317 600 q 265 435 260 489 q 312 342 271 382 q 433 300 353 303 q 404 354 415 332 q 393 382 393 376 q 413 413 393 396 q 460 441 433 429 q 513 456 488 453 q 547 444 538 458 z "},"R":{"ha":776,"x_min":17,"x_max":757,"o":"m 567 304 q 633 360 597 349 q 697 356 668 371 q 742 305 726 342 q 749 214 757 268 q 703 107 739 150 q 615 43 667 64 q 505 26 564 22 q 390 58 446 29 q 311 114 347 82 q 243 186 275 146 l 239 38 q 226 15 236 25 q 201 1 218 7 q 153 -6 183 -6 q 102 1 121 -6 q 72 17 83 8 q 56 40 60 26 q 53 85 56 44 q 48 188 51 125 q 40 331 44 251 q 33 494 36 411 q 26 656 29 576 q 20 799 22 736 q 17 902 18 863 q 19 946 17 942 q 36 972 24 961 q 65 992 49 983 q 178 1030 118 1014 q 299 1051 238 1046 q 421 1047 360 1056 q 538 1013 482 1039 q 634 942 593 986 q 697 842 675 897 q 719 725 718 788 q 696 601 721 663 q 574 437 657 507 q 389 329 492 367 q 430 290 410 308 q 471 263 450 271 q 515 264 492 256 q 567 304 539 272 m 253 485 q 363 527 314 493 q 441 604 411 561 q 479 692 471 647 q 468 768 488 738 q 399 807 449 799 q 263 786 349 815 l 253 485 z "},"S":{"ha":632,"x_min":17,"x_max":619,"o":"m 385 664 q 306 691 339 688 q 263 685 272 694 q 272 657 253 676 q 350 617 292 638 q 491 551 429 589 q 585 461 553 514 q 614 380 608 422 q 613 297 619 338 q 560 172 600 224 q 464 91 519 119 q 343 59 408 63 q 217 82 278 56 q 63 213 119 124 l 61 215 q 57 225 60 217 q 50 266 46 246 q 67 302 54 286 q 98 329 79 318 q 136 343 117 340 q 172 340 156 346 q 199 315 189 333 q 247 252 219 274 q 302 225 274 231 q 356 228 331 219 q 397 254 381 236 q 417 297 413 272 q 408 349 422 321 q 388 372 403 361 q 353 390 372 382 q 310 406 333 399 q 264 419 286 413 q 188 447 225 429 q 120 488 151 464 q 65 543 89 513 q 29 611 42 574 q 17 678 17 644 q 28 744 18 713 q 55 805 38 776 q 94 856 72 833 q 186 914 135 894 q 292 935 238 933 q 400 924 347 938 q 497 882 453 910 q 557 806 549 850 q 545 724 565 761 q 481 667 525 686 q 385 664 438 647 z "},"T":{"ha":814,"x_min":19,"x_max":796,"o":"m 731 958 q 781 925 765 956 q 794 859 796 894 q 776 795 793 824 q 732 768 760 767 q 665 764 701 767 q 593 759 633 761 q 507 754 553 757 l 469 35 q 457 15 467 24 q 431 1 449 8 q 383 -6 414 -6 q 333 1 351 -6 q 303 14 314 7 q 286 33 290 22 q 265 385 275 210 q 257 739 254 560 q 126 734 179 736 q 65 735 74 732 q 41 758 51 739 q 26 803 31 776 q 20 858 21 829 q 26 913 19 888 q 44 957 32 939 q 75 978 56 975 l 731 958 l 731 958 z "},"U":{"ha":732,"x_min":18,"x_max":713,"o":"m 274 581 q 278 442 267 499 q 313 352 290 385 q 366 313 336 319 q 425 324 396 306 q 477 388 454 343 q 511 506 500 433 q 518 578 515 539 q 522 657 521 617 q 522 737 522 697 q 521 813 522 776 q 547 859 521 840 q 605 881 572 878 q 667 868 638 883 q 703 813 696 853 q 710 727 707 782 q 711 607 713 672 q 703 474 710 542 q 681 349 697 406 q 613 207 657 263 q 514 122 569 151 q 397 88 458 92 q 275 103 335 83 q 156 169 204 125 q 78 269 108 213 q 35 393 49 326 q 20 529 22 460 q 26 666 18 599 q 44 793 33 733 q 74 843 53 824 q 122 872 94 863 q 178 878 149 881 q 233 862 208 876 q 273 821 257 847 q 289 754 289 794 l 274 581 z "},"V":{"ha":729,"x_min":11,"x_max":721,"o":"m 258 815 q 281 644 268 728 q 315 479 293 560 q 375 376 350 379 q 425 479 400 374 q 479 679 453 581 q 542 876 506 778 q 590 917 558 910 q 652 914 622 925 q 701 876 682 903 q 713 817 721 850 q 708 803 711 811 q 703 785 706 796 q 697 760 700 774 q 681 696 690 733 q 660 611 671 658 q 649 563 654 588 q 638 511 644 538 q 620 425 629 474 q 598 326 611 376 q 566 226 585 275 q 519 142 547 178 q 453 86 490 103 q 376 71 415 69 q 300 88 338 72 q 233 132 263 104 q 138 267 179 181 q 68 452 96 354 q 26 644 40 550 q 11 804 11 739 q 48 883 14 853 q 125 918 82 914 q 207 899 168 924 q 258 815 246 875 z "},"W":{"ha":969,"x_min":24,"x_max":949,"o":"m 939 881 q 943 597 949 742 q 911 308 938 451 q 887 209 901 258 q 850 118 872 160 q 797 47 828 76 q 725 4 767 17 q 639 2 679 -8 q 565 37 599 13 q 503 95 532 61 q 451 167 475 129 q 419 103 439 135 q 371 47 399 71 q 308 12 343 24 q 233 7 274 0 q 155 42 188 14 q 99 110 122 71 q 63 195 76 150 q 43 282 50 240 q 26 446 29 360 q 28 613 24 532 q 40 759 32 693 q 57 863 49 825 q 106 923 67 904 q 190 936 146 942 q 268 902 233 931 q 301 819 303 874 q 281 647 289 714 q 269 539 274 581 q 262 473 264 497 q 258 428 260 449 q 265 304 251 332 q 299 299 279 276 q 337 388 318 322 q 361 546 356 454 q 397 585 369 572 q 456 600 425 599 q 513 591 488 601 q 540 560 538 581 q 553 446 547 507 q 574 336 560 385 q 630 255 597 243 q 686 388 663 267 q 701 524 699 456 q 701 664 704 592 q 694 813 699 754 q 692 881 690 871 q 713 926 694 906 q 756 960 731 947 q 810 978 781 974 q 865 973 839 982 q 912 942 892 964 q 939 881 932 919 z "},"X":{"ha":821,"x_min":6,"x_max":807,"o":"m 761 919 q 793 882 785 900 q 804 850 801 864 q 801 821 807 835 q 721 718 763 774 q 640 611 685 671 q 546 485 594 551 l 756 217 q 758 193 761 207 q 744 167 756 182 q 707 132 733 151 q 659 106 679 113 q 624 99 639 99 q 594 106 607 99 q 542 161 571 131 q 483 223 517 188 q 411 299 450 258 q 351 213 379 253 q 302 141 324 172 q 266 90 281 110 q 247 68 251 71 q 182 56 222 49 q 106 89 142 64 q 52 151 71 114 q 54 224 33 188 q 151 347 103 286 q 250 469 200 408 q 163 563 204 518 q 88 644 121 608 q 35 703 56 681 q 13 732 15 726 q 15 772 6 750 q 42 816 24 794 q 87 856 61 838 q 140 884 113 874 q 192 894 167 894 q 236 876 218 893 l 408 657 q 535 801 472 731 q 665 943 599 872 q 690 951 675 950 q 720 946 703 953 q 761 919 738 939 z "},"Y":{"ha":804,"x_min":4,"x_max":800,"o":"m 571 1000 q 615 1015 589 1014 q 669 1007 642 1017 q 724 980 697 997 q 769 941 751 963 q 794 895 788 919 q 789 847 800 871 q 535 464 654 660 q 314 60 417 268 q 293 43 307 49 q 262 39 282 39 q 211 53 242 39 q 164 78 179 64 q 142 106 149 93 q 135 135 135 121 q 139 144 136 139 q 149 172 142 151 q 166 215 156 192 q 189 269 176 239 q 224 354 204 308 q 264 449 243 400 q 251 468 258 456 q 233 493 243 481 q 185 567 211 525 q 132 651 158 608 q 82 742 106 697 q 41 823 58 786 q 14 885 24 860 q 4 914 4 910 q 23 942 6 928 q 67 970 40 957 q 124 993 93 983 q 182 1007 154 1003 q 231 1008 210 1011 q 261 993 253 1006 q 314 833 285 911 q 379 678 343 754 q 431 772 406 726 q 478 857 456 818 q 539 956 514 918 q 571 1000 564 993 z "},"Z":{"ha":740,"x_min":19,"x_max":724,"o":"m 174 1058 q 297 1067 229 1065 q 433 1060 365 1069 q 561 1030 500 1051 q 664 969 622 1008 q 711 888 699 935 q 715 797 724 842 q 692 736 708 764 q 656 685 676 708 q 613 640 635 661 q 569 597 590 618 q 488 521 528 557 q 410 449 447 485 q 338 376 371 413 q 279 301 306 340 q 263 272 264 283 q 266 253 261 260 q 278 243 271 246 q 289 239 286 240 q 365 233 328 233 q 438 235 403 233 q 508 238 474 236 q 579 235 543 239 q 642 196 625 225 q 652 135 658 167 q 619 80 646 104 q 553 54 593 56 q 479 49 528 51 q 372 44 431 46 q 253 44 314 42 q 140 54 192 46 q 49 103 75 69 q 21 181 22 138 q 37 272 19 225 q 76 361 54 319 q 147 473 108 421 q 228 573 185 525 q 319 668 272 621 q 418 767 367 715 q 431 779 424 772 q 442 794 438 786 q 447 807 447 801 q 436 815 446 813 q 378 819 414 819 q 306 817 343 819 q 234 813 268 815 q 183 811 200 811 q 109 828 139 811 q 63 869 79 844 q 46 925 47 894 q 58 983 44 956 q 101 1031 72 1011 q 174 1058 129 1051 z "},"a":{"ha":653,"x_min":11,"x_max":633,"o":"m 633 138 q 624 104 632 119 q 600 80 617 92 q 553 65 583 68 q 502 73 521 63 q 472 96 483 83 q 453 129 458 111 q 450 146 451 136 q 447 166 449 154 q 444 193 446 178 q 374 188 417 190 q 286 179 332 185 q 215 173 250 175 q 150 169 179 171 q 102 165 121 167 q 79 163 83 164 q 46 169 63 158 q 20 206 29 181 q 13 273 11 232 q 32 369 14 314 q 88 551 67 481 q 123 665 110 621 q 145 735 136 710 q 164 781 154 760 q 208 853 182 821 q 266 906 235 885 q 332 938 297 928 q 401 946 367 949 q 490 913 454 942 q 550 841 526 883 q 585 747 574 799 q 601 643 597 694 q 610 547 608 585 q 614 472 611 508 l 633 138 m 354 618 q 322 501 335 560 q 292 381 310 442 q 358 376 325 378 q 425 371 392 374 q 410 494 417 433 q 393 618 403 556 q 385 653 389 643 q 376 660 381 663 q 365 647 371 658 q 354 618 360 635 z "},"n":{"ha":751,"x_min":21,"x_max":735,"o":"m 490 908 q 539 944 500 933 q 621 951 578 954 q 699 929 664 947 q 735 878 733 911 q 696 506 714 692 q 663 133 678 321 q 640 94 663 110 q 585 74 617 78 q 523 84 554 71 q 475 131 492 97 q 399 244 438 185 q 324 359 365 296 q 240 486 282 422 q 224 312 231 399 q 210 138 217 225 q 197 122 207 129 q 171 110 189 115 q 122 107 153 106 q 72 115 90 108 q 43 128 54 121 q 26 147 31 136 q 24 250 25 194 q 22 357 22 297 q 21 481 21 417 q 22 606 21 544 q 24 718 22 668 q 27 801 25 768 q 29 839 29 833 q 71 894 33 874 q 153 920 108 915 q 239 913 197 925 q 293 871 281 901 l 476 518 q 478 655 476 588 q 481 776 479 722 q 485 866 482 831 q 490 908 488 901 z "},"c":{"ha":732,"x_min":13,"x_max":719,"o":"m 268 625 q 242 503 239 567 q 274 388 246 440 q 326 322 296 344 q 388 300 357 300 q 449 322 419 300 q 500 388 479 343 q 546 421 514 415 q 603 419 578 426 q 662 370 646 407 q 660 296 678 333 q 601 201 638 243 q 517 134 564 160 q 415 101 469 108 q 304 108 361 93 q 211 153 253 124 q 138 219 169 182 q 82 301 106 257 q 44 390 58 344 q 30 611 13 503 q 114 807 47 719 q 205 891 153 857 q 315 941 257 925 q 433 953 372 957 q 549 924 493 950 q 649 850 607 896 q 711 742 692 804 q 703 664 719 700 q 658 605 688 628 q 590 578 628 582 q 515 599 551 575 q 496 622 503 607 q 481 651 489 638 q 428 704 458 692 q 369 709 399 717 q 312 678 339 701 q 268 625 285 656 z "},"r":{"ha":744,"x_min":22,"x_max":721,"o":"m 115 917 q 264 955 181 946 q 428 949 347 964 q 579 894 510 935 q 688 781 649 853 q 715 651 721 715 q 676 530 708 588 q 590 425 643 472 q 479 347 538 378 q 482 346 481 347 q 558 306 521 325 q 626 272 596 288 q 675 245 656 256 q 697 231 694 235 q 699 200 703 221 q 686 154 696 179 q 662 103 676 129 q 631 58 647 78 q 597 26 614 38 q 567 19 581 15 q 394 140 479 78 q 226 271 310 203 q 215 190 221 231 q 203 110 210 150 q 189 93 200 99 q 161 83 179 86 q 113 83 143 81 q 65 96 82 88 q 38 113 47 104 q 22 133 26 122 q 28 244 25 186 q 32 358 31 294 q 35 489 33 421 q 36 622 36 557 q 36 740 36 688 q 37 828 36 793 q 40 868 38 863 q 65 891 43 878 q 115 917 88 904 m 250 458 q 350 494 303 467 q 429 558 397 522 q 474 630 461 593 q 473 693 488 667 q 411 730 458 719 q 276 722 364 740 q 264 590 269 658 q 250 458 258 522 z "},"i":{"ha":276,"x_min":15,"x_max":265,"o":"m 265 806 q 203 167 246 482 q 190 153 200 158 q 164 144 182 147 q 115 143 146 140 q 66 152 83 146 q 39 165 49 158 q 24 183 28 174 l 24 279 q 23 378 24 322 q 21 492 22 433 q 19 606 21 550 q 17 708 18 663 q 15 783 15 753 q 17 818 15 813 q 64 850 25 839 q 146 861 103 861 q 225 848 189 861 q 265 806 261 835 z "},"e":{"ha":560,"x_min":15,"x_max":542,"o":"m 475 360 q 494 339 485 356 q 511 298 504 322 q 523 247 518 274 q 527 196 528 219 q 521 155 526 172 q 504 133 515 138 l 72 103 q 60 113 65 104 q 48 135 54 119 q 36 178 42 150 q 32 223 31 206 q 36 250 33 240 q 44 267 40 261 q 47 268 46 267 q 54 271 49 268 q 50 349 51 307 q 49 436 49 392 l 36 438 q 26 450 32 440 q 19 474 22 458 q 15 518 15 490 q 19 563 15 546 q 26 590 22 581 q 38 606 32 601 l 50 606 l 50 760 q 43 794 46 772 q 42 838 40 815 q 49 882 43 861 q 67 911 56 903 q 135 915 99 913 q 205 919 165 918 q 286 924 244 921 q 368 925 328 925 q 441 924 408 925 q 494 922 474 924 q 518 918 515 921 q 537 874 532 910 q 538 798 542 838 q 521 726 533 758 q 490 692 508 694 q 393 706 442 699 q 294 718 344 713 q 292 672 293 694 q 288 626 290 650 q 402 633 353 631 q 458 632 451 635 q 477 589 471 624 q 483 515 483 554 q 473 442 482 475 q 447 404 464 408 l 261 419 q 256 367 258 393 q 251 317 254 342 q 330 333 292 325 q 399 348 368 342 q 451 358 431 354 q 475 360 471 361 z "},"t":{"ha":808,"x_min":19,"x_max":796,"o":"m 731 1043 q 781 1010 765 1040 q 794 944 796 979 q 776 880 793 908 q 732 853 760 851 q 665 849 701 851 q 593 844 633 846 q 507 839 553 842 l 469 35 q 457 15 467 24 q 431 1 449 8 q 383 -6 414 -6 q 333 1 351 -6 q 303 14 314 7 q 286 33 290 22 q 275 222 281 121 q 265 426 269 322 q 258 633 260 531 q 257 824 256 735 q 126 819 179 821 q 65 819 74 817 q 41 842 51 824 q 26 888 31 861 q 20 943 21 914 q 26 998 19 972 q 44 1042 32 1024 q 75 1063 56 1060 l 731 1043 l 731 1043 z "},"!":{"ha":288,"x_min":18,"x_max":269,"o":"m 269 933 q 250 617 263 774 q 218 301 238 460 q 206 288 215 293 q 179 278 197 282 q 131 278 161 275 q 81 285 99 279 q 53 299 64 292 q 36 315 40 306 q 35 410 35 360 q 33 507 33 453 q 31 619 33 561 q 26 731 28 676 q 22 831 24 786 q 19 906 19 876 q 21 939 18 935 q 67 972 29 960 q 149 984 106 983 q 228 972 192 985 q 269 933 264 960 m 200 103 q 176 44 200 68 q 118 19 151 19 q 59 44 83 19 q 35 103 35 68 q 59 160 35 136 q 118 185 83 185 q 176 160 151 185 q 200 103 200 136 z "},"?":{"ha":678,"x_min":13,"x_max":658,"o":"m 17 747 q 37 813 24 783 q 67 865 50 842 q 159 949 104 915 q 275 1000 214 983 q 400 1014 336 1017 q 519 986 464 1011 q 620 906 582 961 q 658 789 658 851 q 628 678 658 726 q 553 593 597 629 q 497 555 525 571 q 440 522 468 539 q 388 485 413 506 q 344 436 363 465 q 322 389 331 414 q 311 336 314 364 q 278 288 304 301 q 224 279 251 274 q 174 308 196 285 q 154 368 151 331 q 165 419 157 390 q 184 476 174 449 q 206 526 194 503 q 226 560 218 549 q 269 608 246 588 q 319 647 293 629 q 370 682 344 665 q 419 718 396 699 q 458 765 454 743 q 444 801 461 788 q 393 817 426 815 q 322 801 360 818 q 273 769 296 789 q 230 728 250 750 q 190 684 210 707 q 153 643 171 661 q 138 631 146 636 q 119 622 131 626 q 99 620 111 619 q 76 626 88 621 q 54 640 65 631 q 33 665 43 650 q 17 747 13 701 m 315 139 q 292 80 315 104 q 233 56 269 56 q 176 80 200 56 q 153 139 153 104 q 176 197 153 172 q 233 221 200 221 q 292 197 269 221 q 315 139 315 172 z "},":":{"ha":194,"x_min":17,"x_max":179,"o":"m 179 335 q 156 276 179 300 q 97 253 133 253 q 40 276 64 253 q 17 335 17 300 q 40 392 17 368 q 97 417 64 417 q 156 392 133 417 q 179 335 179 368 m 179 585 q 156 527 179 551 q 97 503 133 503 q 40 527 64 503 q 17 585 17 551 q 40 642 17 618 q 97 665 64 665 q 156 642 133 665 q 179 585 179 618 z "},"k":{"ha":651,"x_min":19,"x_max":633,"o":"m 619 278 q 615 210 633 247 q 567 142 597 172 q 501 99 536 113 q 443 104 465 85 q 343 213 394 160 q 238 317 292 265 l 224 85 q 211 67 221 75 q 185 53 203 60 q 138 49 168 47 q 88 55 106 49 q 58 68 69 61 q 42 88 46 76 q 38 203 40 142 q 33 323 35 256 q 28 461 31 390 q 23 601 25 532 q 20 725 21 669 q 19 817 19 781 q 22 860 19 853 q 69 897 31 885 q 151 907 108 908 q 230 890 194 906 q 269 840 265 874 l 261 696 q 340 743 300 719 q 412 785 379 767 q 467 816 444 804 q 494 829 490 828 q 550 808 521 835 q 599 742 579 781 q 622 664 618 704 q 600 604 625 624 l 333 496 q 386 461 357 481 q 446 419 415 442 q 510 373 479 396 q 565 330 542 350 q 604 296 589 310 q 619 278 619 282 z "},"l":{"ha":538,"x_min":22,"x_max":517,"o":"m 244 336 q 256 294 242 304 q 293 282 271 283 q 330 283 310 281 q 371 290 350 286 q 412 299 392 294 q 449 304 432 303 q 490 290 476 304 q 507 253 503 275 q 511 229 510 242 q 514 201 513 217 q 511 152 517 172 q 496 122 506 132 q 467 102 485 106 q 432 97 450 99 q 380 94 413 96 q 310 90 347 92 q 234 88 272 88 q 167 92 196 88 q 108 108 135 96 q 64 143 81 121 q 29 222 36 178 q 24 313 22 267 q 26 401 25 349 q 30 510 28 453 q 35 626 32 568 q 40 729 38 683 q 44 803 42 775 q 50 832 47 832 q 78 865 57 851 q 126 883 99 878 q 183 885 153 888 q 238 873 213 883 q 278 844 263 863 q 296 799 294 825 l 244 336 z "},"m":{"ha":964,"x_min":17,"x_max":954,"o":"m 710 900 q 760 934 721 925 q 843 938 800 943 q 920 912 886 932 q 954 857 954 892 q 838 74 888 469 q 824 56 835 63 q 797 44 814 49 q 747 42 779 39 q 699 53 717 44 q 672 71 682 61 q 657 93 661 81 q 661 215 658 150 q 666 340 664 271 q 674 485 668 410 l 674 489 q 638 435 656 461 q 607 390 621 410 q 583 356 593 369 q 571 340 574 342 q 551 326 565 332 q 518 319 536 321 q 481 316 500 317 q 450 318 463 315 q 428 327 439 319 q 406 346 417 335 q 328 414 372 379 q 244 489 285 449 q 247 401 244 453 q 251 295 249 350 q 257 189 254 240 q 263 100 260 138 q 253 83 261 90 q 228 70 246 76 q 181 60 211 64 q 131 58 150 56 q 101 65 113 60 q 82 79 88 71 q 66 164 75 104 q 48 300 57 224 q 31 460 39 376 q 20 619 24 544 q 17 749 17 693 q 26 825 18 806 q 65 867 36 850 q 128 892 93 885 q 197 893 163 899 q 256 867 232 888 q 349 724 300 793 q 450 588 397 654 q 599 764 546 701 q 676 856 651 826 q 705 892 700 886 q 710 900 710 899 z "},"o":{"ha":676,"x_min":8,"x_max":663,"o":"m 493 825 q 555 785 529 818 q 600 719 581 753 q 650 573 638 656 q 650 408 663 490 q 599 255 638 326 q 496 142 561 183 q 408 105 454 115 q 316 100 363 94 q 225 126 269 106 q 143 182 181 146 q 39 353 69 251 q 24 560 8 456 q 58 669 33 617 q 120 765 83 722 q 205 840 157 808 q 310 885 253 871 q 359 892 332 890 q 412 890 386 894 q 459 870 438 885 q 493 828 481 856 l 493 825 m 253 486 q 265 386 250 425 q 302 329 279 347 q 353 313 325 311 q 406 335 381 315 q 449 394 431 356 q 469 486 467 432 q 461 561 471 518 q 435 632 451 604 q 425 649 431 640 q 414 664 419 657 q 379 646 397 650 q 360 641 369 643 q 340 635 350 639 q 276 576 297 618 q 253 486 256 535 z "},"s":{"ha":626,"x_min":15,"x_max":614,"o":"m 190 340 q 240 315 214 325 q 290 300 267 304 q 356 303 331 293 q 387 329 381 313 q 381 365 393 346 q 338 396 369 385 q 236 426 285 413 q 147 457 188 439 q 46 551 76 490 q 21 678 15 613 q 63 802 26 744 q 164 888 100 860 q 253 908 206 906 q 349 902 301 911 q 441 874 396 893 q 522 828 486 854 q 554 774 551 807 q 542 711 557 740 q 498 664 526 682 q 436 654 469 646 q 394 676 419 663 q 344 698 369 689 q 292 708 318 707 q 247 693 267 708 q 240 655 228 678 q 304 625 251 632 q 394 600 351 614 q 472 567 436 586 q 535 522 507 549 q 585 456 564 494 q 611 336 614 400 q 583 229 608 276 q 515 149 557 182 q 419 97 472 115 q 310 76 367 78 q 200 92 254 75 q 103 146 146 108 q 66 194 78 168 q 56 246 54 221 q 79 310 57 276 q 132 354 101 343 q 164 356 151 361 q 190 340 176 350 z "},"z":{"ha":618,"x_min":13,"x_max":597,"o":"m 176 954 q 271 947 222 951 q 366 934 319 943 q 455 909 413 925 q 529 868 497 893 q 581 803 565 840 q 597 728 597 767 q 583 650 597 689 q 544 581 568 611 q 485 513 519 547 q 414 447 450 479 q 344 386 378 415 q 289 333 311 357 q 267 291 257 301 q 313 281 276 281 q 389 287 344 282 q 471 290 433 292 q 534 269 511 288 q 561 213 557 250 q 556 162 565 182 q 533 131 546 142 q 483 110 517 118 q 408 98 449 103 q 324 91 367 93 q 243 89 281 89 q 165 95 199 89 q 108 111 132 101 q 69 134 85 121 q 44 163 54 147 q 23 217 28 189 q 24 276 18 246 q 42 337 29 307 q 72 394 54 367 q 124 464 94 429 q 184 530 153 499 q 247 590 215 561 q 307 644 279 619 q 326 665 319 656 q 328 683 332 675 q 310 695 325 690 q 265 703 296 700 q 183 707 222 706 q 103 717 144 708 q 44 745 65 724 q 18 794 24 767 q 21 850 13 821 q 50 903 29 879 q 103 942 71 928 q 176 954 135 957 z "},"h":{"ha":692,"x_min":19,"x_max":675,"o":"m 675 801 q 667 480 668 640 q 672 157 667 319 q 661 140 671 147 q 636 127 653 133 q 588 118 619 121 q 538 119 556 115 q 508 128 519 122 q 490 143 496 133 q 478 236 483 189 q 465 326 472 276 q 453 421 458 375 q 351 419 401 418 q 239 417 300 421 q 231 358 236 394 q 222 284 226 322 q 212 210 217 246 q 203 151 207 174 q 190 136 200 142 q 164 126 182 131 q 115 125 146 122 q 65 135 83 128 q 38 149 47 142 q 22 168 26 157 q 24 269 24 215 l 24 496 q 22 619 24 558 q 20 728 21 679 q 19 808 19 776 q 22 846 19 840 q 69 880 31 868 q 150 891 107 892 q 228 876 193 890 q 268 833 264 863 q 251 572 263 706 q 344 572 297 572 q 439 571 390 572 q 431 658 435 617 q 426 732 428 700 q 424 785 425 764 q 426 810 424 806 q 473 842 435 831 q 554 854 511 854 q 634 841 597 854 q 675 801 671 828 z "},"'":{"ha":224,"x_min":25,"x_max":204,"o":"m 117 807 q 110 804 115 804 q 69 811 97 801 q 32 829 40 821 q 25 838 26 833 q 49 939 38 893 q 67 1010 58 978 q 79 1044 75 1042 q 106 1047 85 1050 q 149 1038 126 1044 q 188 1021 171 1031 q 204 1003 204 1011 l 117 807 z "},"-":{"ha":449,"x_min":19,"x_max":435,"o":"m 419 511 q 428 503 424 508 q 433 485 431 496 q 435 453 435 474 q 430 419 433 432 q 424 400 426 407 q 414 389 418 392 q 235 382 314 385 q 168 380 201 381 q 108 379 135 379 q 65 380 82 379 q 44 382 47 381 q 26 413 32 388 q 21 468 19 439 q 31 521 22 497 q 54 547 39 544 l 419 511 z "},"_":{"ha":457,"x_min":22,"x_max":439,"o":"m 421 140 q 431 132 426 138 q 436 114 433 125 q 438 82 439 103 q 433 49 436 61 q 425 31 429 38 q 415 19 419 24 q 236 13 315 15 q 169 10 203 11 q 110 9 136 10 q 66 9 83 8 q 46 11 49 10 q 28 42 33 17 q 24 97 22 68 q 33 150 25 126 q 58 176 42 174 l 421 140 z "},"+":{"ha":460,"x_min":22,"x_max":438,"o":"m 421 511 q 429 503 425 508 q 435 485 432 496 q 436 453 438 474 q 431 419 435 432 q 425 400 428 407 q 415 389 419 392 q 381 388 399 388 q 344 386 365 386 q 299 385 322 386 l 285 271 q 275 263 282 267 q 257 258 268 260 q 225 258 246 256 q 192 263 204 260 q 174 271 181 267 q 163 281 167 276 l 163 310 q 162 342 163 324 q 161 382 161 360 q 83 381 115 381 q 46 382 50 381 q 28 413 33 388 q 23 468 22 439 q 32 521 24 497 q 57 547 40 544 l 160 538 q 160 613 160 582 q 164 650 161 644 q 197 667 171 661 q 251 670 222 672 q 303 660 281 668 q 329 635 326 651 l 315 522 l 421 511 l 421 511 z "},"=":{"ha":468,"x_min":18,"x_max":447,"o":"m 417 376 q 425 368 421 374 q 431 350 428 361 q 432 318 433 339 q 428 285 431 297 q 421 267 425 274 q 410 257 415 260 q 231 250 310 253 q 164 248 197 249 q 104 247 131 247 q 60 247 78 246 q 40 249 43 247 q 23 280 28 254 q 19 334 18 306 q 29 386 21 363 q 53 413 38 410 l 417 376 m 431 610 q 439 601 435 607 q 444 583 442 594 q 446 551 447 572 q 442 519 444 531 q 435 500 439 507 q 424 490 429 493 q 244 483 324 486 q 178 481 211 482 q 118 480 144 481 q 74 480 92 479 q 54 482 57 481 q 38 513 43 488 q 33 568 32 539 q 43 621 35 597 q 68 647 51 644 l 431 610 z "},"$":{"ha":626,"x_min":15,"x_max":614,"o":"m 390 892 q 522 828 461 871 q 554 774 551 807 q 542 711 557 740 q 498 664 526 682 q 436 654 469 646 q 394 676 419 663 q 344 698 369 689 q 292 708 318 707 q 247 693 267 708 q 240 655 228 678 q 304 625 251 632 q 394 600 351 614 q 472 567 436 586 q 535 522 507 549 q 585 456 564 494 q 611 336 614 400 q 590 247 608 288 q 542 174 572 206 q 474 121 513 143 q 390 88 435 99 l 399 1 q 379 -12 397 -8 q 339 -17 361 -17 q 297 -14 317 -18 q 274 -3 278 -10 q 272 23 271 0 q 275 78 272 46 q 183 97 228 81 q 103 146 139 114 q 66 194 78 168 q 56 246 54 221 q 79 310 57 276 q 132 354 101 343 q 164 356 151 361 q 190 340 176 350 q 240 315 214 325 q 290 300 267 304 q 356 303 331 293 q 387 329 381 313 q 381 365 393 346 q 338 396 369 385 q 236 426 285 413 q 147 457 188 439 q 46 551 76 490 q 21 678 15 613 q 63 802 26 744 q 164 888 100 860 q 275 908 215 908 q 272 967 272 942 q 274 994 271 992 q 297 1006 278 1001 q 339 1009 317 1010 q 379 1004 361 1008 q 399 990 397 1000 l 390 892 z "},"รฐ":{"ha":683,"x_min":11,"x_max":651,"o":"m 526 857 q 602 671 571 767 q 643 479 633 575 q 649 347 651 414 q 628 224 647 281 q 571 124 610 167 q 465 67 532 82 q 356 65 414 56 q 244 103 299 75 q 142 173 189 131 q 64 267 94 215 q 22 380 33 319 q 31 503 11 440 q 78 583 44 547 q 153 643 111 618 q 240 682 194 668 q 325 696 286 696 q 310 727 318 711 q 293 758 301 743 l 214 725 q 203 725 208 722 q 192 733 197 728 q 179 754 186 739 q 172 778 172 768 q 174 794 172 788 q 179 807 175 801 q 199 817 188 811 q 247 843 219 828 q 234 933 228 896 q 281 999 240 971 q 391 1026 346 1040 q 471 960 436 1013 q 525 987 503 976 q 551 999 547 997 q 581 987 567 1000 q 604 954 596 974 q 612 915 613 935 q 596 886 611 896 l 526 857 m 397 486 q 388 483 389 483 l 385 483 q 286 466 314 485 q 259 420 258 447 q 282 363 260 393 q 333 311 304 333 q 392 281 363 289 q 436 289 421 272 q 445 352 451 306 q 397 486 439 399 z "},"p":{"ha":719,"x_min":21,"x_max":699,"o":"m 553 889 q 665 774 632 839 q 696 642 699 710 q 659 509 693 575 q 570 389 625 443 q 445 298 515 335 q 300 253 375 261 q 294 167 296 210 q 290 81 293 125 q 275 61 289 69 q 240 47 264 54 q 176 39 217 40 q 110 44 135 38 q 71 58 85 50 q 49 79 56 67 q 38 206 43 139 q 30 335 33 264 q 24 486 26 407 q 21 638 21 563 q 22 773 21 713 q 26 873 24 833 q 33 919 29 913 q 72 951 46 940 q 129 965 97 963 q 233 970 176 971 q 346 960 289 969 q 456 933 403 951 q 553 889 510 915 m 314 449 q 381 477 350 454 q 434 531 413 500 q 465 595 456 561 q 466 658 475 629 q 427 706 457 688 q 342 725 397 725 q 326 587 333 654 q 314 449 319 519 z "},"b":{"ha":776,"x_min":13,"x_max":757,"o":"m 756 346 q 756 312 757 328 q 753 279 756 296 q 679 140 735 193 q 548 62 624 88 q 386 35 472 36 q 222 49 300 33 q 165 38 203 38 q 115 44 133 38 q 86 60 97 51 q 69 82 74 69 l 63 214 q 55 347 60 272 q 46 500 50 421 q 33 655 39 579 q 22 792 28 731 q 17 847 19 822 q 13 890 15 872 q 13 915 13 904 q 15 935 13 926 q 26 953 18 944 q 50 974 35 963 q 84 994 65 985 q 123 1010 103 1004 q 164 1016 143 1015 q 206 1010 185 1017 q 233 994 219 1007 q 342 1009 283 1004 q 460 1006 401 1014 q 569 972 518 997 q 656 900 621 947 q 691 823 681 865 q 694 737 701 781 q 660 651 688 693 q 586 571 633 608 l 585 569 q 645 531 615 553 q 699 481 675 508 q 738 419 724 453 q 756 346 753 386 m 267 843 q 266 817 267 831 q 265 785 265 804 q 265 736 265 765 q 264 664 264 707 q 335 673 299 660 q 400 708 372 686 q 442 757 428 731 q 444 805 456 783 q 392 838 433 826 q 267 843 350 850 m 257 231 q 397 224 340 215 q 483 255 454 233 q 514 305 513 276 q 488 358 515 333 q 404 399 461 383 q 261 410 347 415 l 257 231 z "},"d":{"ha":797,"x_min":1,"x_max":768,"o":"m 639 875 q 735 733 704 811 q 767 571 767 654 q 742 406 768 488 q 667 251 715 324 q 550 124 618 179 q 399 39 482 68 q 301 15 350 24 q 203 10 253 7 q 154 3 182 3 q 103 9 122 1 q 74 25 85 17 q 57 47 61 35 q 35 403 40 225 q 15 761 29 581 q 6 860 10 822 q 3 903 1 897 q 47 953 8 931 q 197 1007 117 993 q 356 1010 276 1021 q 508 966 435 1000 q 639 875 581 932 m 247 194 q 363 226 311 197 q 452 299 414 254 q 513 398 490 343 q 540 508 535 453 q 532 615 546 564 q 484 703 518 667 q 394 758 450 740 q 257 763 338 775 q 253 488 257 626 q 243 194 249 350 l 247 194 z "},"f":{"ha":646,"x_min":13,"x_max":635,"o":"m 601 974 q 626 925 618 964 q 633 843 635 886 q 617 765 631 800 q 581 728 604 731 l 314 764 q 310 727 311 740 q 308 701 310 714 q 306 675 307 689 q 304 639 306 661 q 372 640 339 640 q 431 640 404 640 q 474 640 457 640 q 493 638 490 639 q 510 590 506 628 q 513 508 515 551 q 500 430 510 465 q 472 390 490 394 l 289 415 q 280 258 283 336 q 274 100 276 179 q 261 81 271 89 q 235 67 253 74 q 186 61 217 61 q 137 67 154 61 q 108 82 119 74 q 92 103 96 90 q 86 207 89 151 q 81 317 83 256 q 76 446 79 378 l 63 447 q 53 461 57 450 q 47 488 50 471 q 47 536 44 504 q 59 606 50 586 q 72 628 68 625 q 72 684 72 663 q 71 722 71 706 q 72 752 71 738 q 72 788 72 767 l 36 792 q 24 806 29 794 q 16 832 19 815 q 15 881 13 849 q 24 930 18 911 q 36 958 29 949 q 51 974 43 969 q 135 975 90 974 q 219 977 172 976 q 318 979 267 978 q 417 980 368 979 q 505 980 465 981 q 571 978 544 979 q 601 974 597 976 z "},"g":{"ha":732,"x_min":13,"x_max":719,"o":"m 349 564 q 497 542 424 553 q 646 514 571 531 q 677 493 667 508 q 690 457 688 478 q 690 412 693 436 q 681 364 686 388 q 631 247 664 300 q 549 157 597 193 q 440 106 501 121 q 304 108 379 92 q 211 153 253 124 q 138 219 169 182 q 82 301 106 257 q 44 390 58 344 q 30 611 13 503 q 114 807 47 719 q 205 891 153 857 q 315 941 257 925 q 433 953 372 957 q 549 924 493 950 q 649 850 607 896 q 711 742 692 804 q 703 664 719 700 q 658 605 688 628 q 590 578 628 582 q 515 599 551 575 q 496 622 503 607 q 481 651 489 638 q 428 704 458 692 q 369 709 399 717 q 312 678 339 701 q 268 625 285 656 q 242 503 239 567 q 274 388 246 440 q 326 322 296 344 q 388 300 357 300 q 449 322 419 300 q 500 388 479 343 l 503 393 q 445 395 474 394 q 394 396 417 396 q 355 397 371 396 q 336 399 339 397 q 322 431 326 406 q 317 486 317 457 q 326 538 318 515 q 349 564 333 561 z "},"u":{"ha":785,"x_min":18,"x_max":769,"o":"m 769 903 q 746 506 761 704 q 708 110 731 308 q 694 92 706 99 q 667 80 685 85 q 618 78 649 75 q 569 88 586 81 q 542 104 551 96 q 526 126 531 114 l 526 128 q 403 88 468 93 q 275 103 338 83 q 156 169 204 125 q 78 269 108 213 q 35 393 49 326 q 20 529 22 460 q 26 666 18 599 q 44 793 33 733 q 74 843 53 824 q 122 872 94 863 q 178 878 149 881 q 233 862 208 876 q 273 821 257 847 q 289 754 289 794 l 274 581 q 278 442 267 499 q 313 352 290 385 q 366 313 336 319 q 425 324 396 306 q 477 388 454 343 q 511 506 500 433 q 521 625 518 558 q 522 754 524 692 q 519 864 519 821 q 521 914 518 907 q 547 944 526 932 q 593 962 567 956 q 649 969 619 968 q 705 962 679 969 q 749 940 731 954 q 769 903 767 925 z "},"y":{"ha":746,"x_min":21,"x_max":728,"o":"m 481 901 q 506 943 486 926 q 553 968 526 960 q 610 975 581 976 q 666 963 640 974 q 709 930 692 951 q 728 875 726 908 l 713 590 q 694 353 704 450 q 660 191 683 257 q 599 84 638 125 q 494 17 560 43 q 402 -12 451 -1 q 299 -21 353 -22 q 192 -6 246 -19 q 83 39 138 8 q 59 84 61 51 q 69 149 57 117 q 105 204 82 182 q 157 219 128 226 q 251 194 200 203 q 349 192 303 185 q 430 228 394 199 q 476 319 465 258 q 281 317 364 294 q 141 397 197 339 q 56 542 85 454 q 22 736 26 629 q 22 793 21 768 q 25 836 24 818 q 39 878 26 863 q 70 901 51 894 q 113 909 89 908 q 161 907 136 910 q 239 885 206 903 q 275 839 272 868 q 271 799 272 819 q 267 757 269 778 q 293 574 261 640 q 366 499 325 508 q 442 539 407 490 q 476 699 476 588 q 477 837 476 782 q 481 901 478 892 z "},"x":{"ha":821,"x_min":6,"x_max":807,"o":"m 761 919 q 793 882 785 900 q 804 850 801 864 q 801 821 807 835 q 721 718 763 774 q 640 611 685 671 q 546 485 594 551 l 756 217 q 758 193 761 207 q 744 167 756 182 q 707 132 733 151 q 659 106 679 113 q 624 99 639 99 q 594 106 607 99 q 542 161 571 131 q 483 223 517 188 q 411 299 450 258 q 351 213 379 253 q 302 141 324 172 q 266 90 281 110 q 247 68 251 71 q 182 56 222 49 q 106 89 142 64 q 52 151 71 114 q 54 224 33 188 q 151 347 103 286 q 250 469 200 408 q 163 563 204 518 q 88 644 121 608 q 35 703 56 681 q 13 732 15 726 q 15 772 6 750 q 42 816 24 794 q 87 856 61 838 q 140 884 113 874 q 192 894 167 894 q 236 876 218 893 l 408 657 q 535 801 472 731 q 665 943 599 872 q 690 951 675 950 q 720 946 703 953 q 761 919 738 939 z "},"w":{"ha":969,"x_min":11,"x_max":963,"o":"m 890 875 q 932 853 918 864 q 953 832 946 842 q 963 810 960 821 q 899 531 932 668 q 844 247 867 394 q 832 165 838 197 q 822 128 826 133 q 772 96 811 107 q 687 83 732 85 q 604 91 642 82 q 561 119 567 100 q 533 194 549 154 q 505 274 521 229 q 472 367 489 318 q 433 266 453 314 q 397 180 414 218 q 369 117 381 142 q 353 89 357 93 q 313 76 343 81 q 249 73 283 72 q 184 80 214 74 q 146 99 154 86 q 133 134 142 101 q 115 218 125 167 q 92 334 104 269 q 69 466 81 399 q 47 598 57 533 q 28 714 36 663 q 15 799 19 765 q 13 836 11 832 q 55 875 19 860 q 131 893 90 890 q 208 885 172 896 q 250 844 243 874 q 260 646 253 744 q 276 447 267 547 q 344 583 313 515 q 407 722 376 651 q 441 744 411 736 q 505 751 471 751 q 569 741 539 750 q 604 713 599 732 q 633 589 619 650 q 663 465 647 528 q 726 669 692 569 q 800 869 761 769 q 818 882 806 876 q 846 885 829 885 q 890 875 863 886 z "},"{":{"ha":461,"x_min":13,"x_max":446,"o":"m 342 201 q 380 191 360 203 q 415 160 400 179 q 438 119 429 142 q 442 78 446 97 q 432 51 439 64 q 408 32 425 39 q 377 21 397 25 q 334 16 357 17 q 290 16 311 15 q 253 18 268 17 q 138 63 174 28 q 94 147 101 97 q 101 252 86 196 q 140 363 117 308 q 153 394 150 383 q 147 410 156 404 q 119 417 139 415 q 64 418 99 418 q 33 440 46 418 q 16 492 19 463 q 23 553 13 522 q 64 601 33 585 l 76 601 q 92 601 83 601 q 111 603 100 601 q 141 617 135 603 q 143 652 147 631 q 128 700 139 674 q 106 750 117 726 q 89 803 94 775 q 86 858 83 831 q 101 910 89 885 q 138 956 113 936 q 197 990 164 978 q 267 1004 231 1001 q 339 1003 303 1007 q 408 988 375 999 q 442 946 438 975 q 433 888 446 917 q 394 838 419 860 q 342 819 369 817 q 290 822 304 826 q 285 785 275 817 q 303 739 292 763 q 324 690 314 715 q 340 640 333 665 q 344 588 346 614 q 332 545 342 564 q 304 510 322 526 q 341 466 333 494 q 344 403 349 438 q 325 331 339 368 q 299 265 311 294 q 286 229 292 244 q 283 205 281 214 q 299 194 286 196 q 342 201 313 193 z "},"[":{"ha":468,"x_min":21,"x_max":443,"o":"m 415 217 q 435 176 428 210 q 442 106 442 143 q 438 37 443 68 q 418 1 432 6 q 257 6 338 6 q 94 3 176 6 q 83 13 89 4 q 74 33 79 19 q 64 75 68 47 q 59 113 60 99 q 60 138 58 128 q 57 151 58 144 q 56 167 56 158 q 46 217 50 186 q 31 370 38 286 q 23 542 25 454 q 24 718 21 631 q 38 883 28 806 q 39 886 39 883 q 36 927 36 911 q 39 953 36 943 q 46 969 42 964 q 97 979 69 974 q 151 988 121 983 q 213 999 181 993 q 274 1008 243 1004 q 331 1015 306 1013 q 372 1019 356 1018 q 390 1018 388 1019 q 410 978 403 1011 q 419 908 418 946 q 415 838 421 871 q 396 801 410 806 q 338 806 367 804 q 279 807 308 807 q 248 500 260 651 q 243 197 236 349 q 303 207 274 203 q 357 214 333 211 q 397 217 381 217 q 415 217 413 218 z "},"%":{"ha":704,"x_min":21,"x_max":682,"o":"m 672 783 q 442 417 554 601 q 221 44 331 233 q 199 32 213 36 q 169 31 188 29 q 124 47 151 32 q 83 77 96 63 q 65 104 71 92 q 61 132 60 119 q 118 253 88 189 q 178 376 144 307 q 247 519 211 446 q 319 662 283 592 q 386 788 356 732 q 438 881 417 844 q 464 922 458 917 q 503 938 479 936 q 553 931 526 939 q 605 908 579 924 q 649 873 631 893 q 674 830 667 853 q 672 783 682 807 m 146 668 q 97 678 119 668 q 57 705 74 688 q 31 745 40 722 q 21 794 21 768 q 31 842 21 819 q 57 881 40 864 q 97 907 74 897 q 146 917 119 917 q 194 907 172 917 q 233 881 217 897 q 260 842 250 864 q 269 794 269 819 q 260 745 269 768 q 233 705 250 722 q 194 678 217 688 q 146 668 172 668 m 146 810 q 134 805 139 810 q 129 794 129 800 q 146 776 129 776 q 161 794 161 776 q 157 805 161 800 q 146 810 153 810 m 533 60 q 485 69 508 60 q 446 96 463 79 q 419 135 429 113 q 410 185 410 158 q 446 272 410 236 q 533 307 482 307 q 623 272 588 307 q 658 185 658 236 q 623 96 658 132 q 533 60 588 60 m 533 199 q 518 185 518 199 q 533 167 518 167 q 551 185 551 167 q 533 199 551 199 z "},"&":{"ha":640,"x_min":18,"x_max":631,"o":"m 421 542 q 515 521 472 542 q 585 464 557 500 q 622 380 613 428 q 614 278 631 332 q 549 167 596 215 q 440 88 501 118 q 369 67 407 72 q 293 64 332 61 q 220 78 257 67 q 151 113 183 89 q 50 229 82 157 q 20 380 18 301 q 59 532 22 458 q 165 651 96 606 q 133 712 140 679 q 135 776 126 744 q 198 881 151 844 q 301 923 244 917 q 415 905 358 929 q 513 828 472 881 q 532 796 524 813 q 543 762 540 779 q 541 728 546 744 q 521 696 536 711 q 481 676 506 681 q 433 676 457 671 q 390 695 408 681 q 367 733 371 710 q 349 759 364 751 q 318 764 335 767 q 286 749 301 761 q 268 717 271 738 q 269 690 265 703 q 285 668 272 676 q 321 660 297 660 q 383 674 344 660 q 399 668 394 678 q 404 639 404 658 q 406 606 404 619 q 405 585 407 593 q 395 572 403 576 q 369 563 388 567 q 310 538 340 556 q 255 492 279 519 q 215 428 231 464 q 203 351 200 393 q 219 299 206 322 q 251 258 232 275 q 338 233 288 229 q 426 269 389 236 q 454 301 443 281 q 468 341 465 321 q 464 378 471 361 q 436 400 457 394 q 400 403 421 403 q 367 415 379 403 q 349 451 354 428 q 347 494 343 475 q 374 529 351 517 q 421 542 397 542 z "},"/":{"ha":639,"x_min":21,"x_max":617,"o":"m 607 838 q 390 449 494 643 q 188 57 286 256 q 167 42 181 47 q 138 38 156 38 q 92 51 119 39 q 49 77 63 63 q 28 104 35 92 q 21 132 21 119 q 71 261 44 193 q 125 392 94 319 q 190 542 156 465 q 258 692 224 618 q 320 826 292 767 q 368 924 349 886 q 393 968 388 963 q 431 985 407 982 q 483 981 456 988 q 535 960 510 975 q 581 926 561 946 q 608 884 600 907 q 607 838 617 861 z "},"@":{"ha":903,"x_min":14,"x_max":899,"o":"m 28 446 q 37 609 14 531 q 108 752 60 688 q 226 865 157 817 q 375 938 296 914 q 581 952 481 968 q 756 878 682 936 q 864 722 829 819 q 869 492 899 624 q 849 426 863 460 q 817 361 836 392 q 774 306 799 331 q 715 267 749 281 q 722 263 718 264 q 729 258 726 261 q 746 215 749 239 q 726 169 743 190 q 668 118 703 139 q 594 85 633 97 q 514 69 556 74 q 433 65 472 64 q 289 97 357 65 q 167 181 221 128 q 76 302 113 233 q 28 446 40 371 m 469 447 q 469 459 469 450 q 468 501 469 468 q 447 494 456 501 q 438 478 439 488 q 445 460 438 469 q 469 447 453 451 m 281 726 q 206 614 228 681 q 192 478 185 547 q 236 348 200 410 q 335 250 272 286 q 462 217 393 218 q 600 258 531 215 l 601 258 q 606 260 603 258 q 572 273 589 263 q 540 296 554 283 q 383 299 461 272 q 281 369 318 321 q 237 472 243 417 q 258 583 231 528 q 350 675 285 639 q 406 696 374 688 q 472 707 438 704 q 539 706 506 710 q 597 693 572 703 q 621 644 621 681 l 621 643 q 663 604 644 633 l 663 632 q 624 753 663 711 q 526 806 585 796 q 401 794 468 815 q 281 726 335 774 z "},",":{"ha":313,"x_min":42,"x_max":278,"o":"m 118 267 q 151 272 125 272 q 206 264 178 271 q 256 246 233 257 q 278 222 278 235 q 221 89 254 153 q 147 -35 188 25 q 136 -36 143 -37 q 119 -31 129 -35 q 92 -17 108 -28 q 64 2 74 -6 q 49 17 54 10 q 42 29 43 24 q 57 64 50 46 q 71 100 64 79 q 85 143 78 121 q 97 187 92 165 q 106 226 101 208 q 113 254 110 243 q 118 267 115 265 z "},"j":{"ha":713,"x_min":13,"x_max":690,"o":"m 690 521 q 669 353 690 438 q 605 201 649 269 q 493 90 561 133 q 332 47 425 47 q 228 64 279 47 q 135 112 178 81 q 64 187 93 143 q 25 285 35 231 q 28 415 13 350 q 81 538 44 479 q 119 585 99 565 q 161 613 139 606 q 219 613 192 621 q 265 586 247 604 q 288 544 283 568 q 279 496 293 519 q 260 467 271 485 q 239 432 249 450 q 222 396 229 414 q 214 365 215 378 q 235 294 211 325 q 311 257 258 264 q 365 266 342 253 q 406 302 389 279 q 435 353 424 325 q 450 410 446 382 q 459 509 458 454 q 454 619 460 564 q 437 727 449 675 q 408 819 425 779 q 404 832 406 826 q 401 840 403 838 q 401 901 393 874 q 428 949 410 929 q 474 978 447 968 q 530 986 501 988 q 585 971 558 985 q 629 929 611 957 q 663 847 650 901 q 681 733 675 793 q 689 614 688 672 q 690 521 690 556 z "},"q":{"ha":853,"x_min":19,"x_max":833,"o":"m 644 874 q 732 791 694 839 q 793 687 769 743 q 825 569 817 631 q 825 446 833 508 q 774 294 814 367 q 667 167 735 221 q 686 126 676 147 q 707 85 696 106 q 699 56 711 71 q 669 32 688 42 q 631 19 651 22 q 600 26 611 17 q 585 47 592 35 q 569 72 578 58 q 550 103 561 86 q 395 78 474 74 q 247 117 317 83 q 124 210 178 150 q 42 351 69 269 q 22 485 19 418 q 49 615 25 553 q 117 733 74 678 q 222 835 161 789 q 332 895 272 874 q 454 897 392 917 q 497 924 472 919 q 549 921 522 928 q 600 901 575 914 q 644 874 625 888 m 547 444 q 563 407 556 425 q 576 369 569 389 q 624 465 613 411 q 625 572 636 519 q 583 671 614 625 q 503 744 551 717 q 480 708 494 724 q 448 681 465 693 q 411 659 431 669 q 374 636 392 649 q 288 544 317 600 q 265 435 260 489 q 312 342 271 382 q 433 300 353 303 q 404 354 415 332 q 393 382 393 376 q 413 413 393 396 q 460 441 433 429 q 513 456 488 453 q 547 444 538 458 z "},"v":{"ha":729,"x_min":11,"x_max":721,"o":"m 258 815 q 281 644 268 728 q 315 479 293 560 q 375 376 350 379 q 425 479 400 374 q 479 679 453 581 q 542 876 506 778 q 590 917 558 910 q 652 914 622 925 q 701 876 682 903 q 713 817 721 850 q 708 803 711 811 q 703 785 706 796 q 697 760 700 774 q 681 696 690 733 q 660 611 671 658 q 649 563 654 588 q 638 511 644 538 q 620 425 629 474 q 598 326 611 376 q 566 226 585 275 q 519 142 547 178 q 453 86 490 103 q 376 71 415 69 q 300 88 338 72 q 233 132 263 104 q 138 267 179 181 q 68 452 96 354 q 26 644 40 550 q 11 804 11 739 q 48 883 14 853 q 125 918 82 914 q 207 899 168 924 q 258 815 246 875 z "},"\"":{"ha":379,"x_min":25,"x_max":363,"o":"m 117 807 q 110 804 115 804 q 69 811 97 801 q 32 829 40 821 q 25 838 26 833 q 49 939 38 893 q 67 1010 58 978 q 79 1044 75 1042 q 106 1047 85 1050 q 149 1038 126 1044 q 188 1021 171 1031 q 204 1003 204 1011 l 117 807 m 275 807 q 268 804 274 804 q 228 811 256 801 q 190 829 199 821 q 183 838 185 833 q 207 939 196 893 q 225 1010 217 978 q 238 1044 233 1042 q 264 1047 243 1050 q 307 1038 285 1044 q 346 1021 329 1031 q 363 1003 363 1011 l 275 807 z "},"(":{"ha":501,"x_min":18,"x_max":478,"o":"m 440 814 q 299 651 351 743 q 240 469 246 560 q 285 298 235 379 q 451 167 335 217 q 457 164 454 167 q 468 149 461 158 q 476 119 474 138 q 471 71 478 101 q 451 24 464 40 q 422 3 439 8 q 383 1 404 -1 q 339 13 363 4 q 267 48 300 28 q 204 92 233 68 q 94 222 136 149 q 35 375 53 294 q 24 540 18 456 q 58 703 31 624 q 131 853 85 782 q 242 976 178 924 q 276 1005 263 994 q 294 1018 289 1015 q 331 1026 308 1026 q 351 1022 342 1025 q 371 1015 360 1019 q 432 960 406 999 q 451 922 443 942 q 460 882 458 901 q 458 846 463 863 q 440 814 454 829 z "},")":{"ha":501,"x_min":21,"x_max":481,"o":"m 58 814 q 40 846 44 829 q 39 882 36 863 q 48 922 40 901 q 67 960 56 942 q 128 1015 93 999 q 148 1022 139 1019 q 168 1026 157 1025 q 204 1018 190 1026 q 223 1005 210 1015 q 257 976 236 994 q 367 853 321 924 q 441 703 414 782 q 474 540 468 624 q 463 375 481 456 q 404 222 446 294 q 294 92 363 149 q 232 48 265 68 q 160 13 199 28 q 115 1 136 4 q 77 3 94 -1 q 47 24 60 8 q 28 71 35 40 q 23 119 21 101 q 31 149 25 138 q 36 158 33 154 q 42 164 39 161 q 47 167 44 167 q 214 298 164 217 q 258 469 264 379 q 200 651 253 560 q 58 814 147 743 z "},";":{"ha":243,"x_min":-10,"x_max":226,"o":"m 224 585 q 201 527 224 551 q 142 503 178 503 q 85 527 108 503 q 61 585 61 551 q 85 642 61 618 q 142 665 108 665 q 201 642 178 665 q 224 585 224 618 m 67 311 q 100 316 74 317 q 154 308 126 315 q 204 290 182 301 q 226 267 226 279 q 169 133 203 197 q 96 10 136 69 q 85 8 92 7 q 67 13 78 10 q 40 28 57 17 q 13 47 22 39 q -3 61 3 54 q -10 74 -8 68 q 6 108 -1 90 q 19 144 13 124 q 33 188 26 165 q 45 231 40 210 q 54 270 50 253 q 61 299 58 288 q 67 311 64 310 z "},".":{"ha":203,"x_min":17,"x_max":179,"o":"m 179 125 q 156 67 179 90 q 97 43 133 43 q 40 67 64 43 q 17 125 17 90 q 40 183 17 158 q 97 207 64 207 q 156 183 133 207 q 179 125 179 158 z "},"๎":{"ha":1179,"x_min":21,"x_max":1161,"o":"m 560 254 q 583 216 575 247 q 592 149 592 185 q 585 83 593 114 q 558 47 576 53 l 117 46 q 114 47 117 46 q 63 63 82 50 q 40 111 43 75 q 31 263 31 186 q 38 424 32 340 q 26 445 32 428 q 24 508 21 463 q 35 572 26 553 q 50 599 43 592 q 60 737 54 678 q 68 818 65 796 q 63 842 65 828 q 58 876 60 856 q 59 933 57 914 q 70 962 61 953 q 99 972 79 971 q 151 976 118 974 q 351 982 249 982 q 565 971 453 982 q 588 933 581 963 q 592 871 594 904 q 579 810 590 838 q 549 776 568 782 l 314 785 l 286 614 l 289 614 q 381 610 336 611 q 462 610 426 610 q 519 613 497 611 q 544 614 542 614 q 564 602 556 617 q 576 564 572 588 q 579 511 579 540 q 575 456 579 482 q 561 410 571 429 q 538 388 551 392 q 395 399 465 392 q 253 413 325 406 q 241 335 246 376 q 233 258 236 293 l 233 250 q 305 248 258 247 q 402 249 351 249 q 497 252 453 250 q 560 254 540 254 m 1094 360 q 1114 339 1104 356 q 1131 298 1124 322 q 1142 247 1138 274 q 1147 196 1147 219 q 1140 155 1146 172 q 1124 133 1135 138 l 692 103 q 679 113 685 104 q 667 135 674 119 q 656 178 661 150 q 651 223 650 206 q 656 250 653 240 q 664 267 660 261 q 667 268 665 267 q 674 271 668 268 q 669 349 671 307 q 668 436 668 392 l 656 438 q 646 450 651 440 q 638 474 642 458 q 635 518 635 490 q 638 563 635 546 q 646 590 642 581 q 657 606 651 601 l 669 606 l 669 760 q 663 794 665 772 q 661 838 660 815 q 669 882 663 861 q 686 911 675 903 q 754 915 718 913 q 824 919 785 918 q 906 924 864 921 q 988 925 947 925 q 1060 924 1028 925 q 1114 922 1093 924 q 1138 918 1135 921 q 1156 874 1151 910 q 1157 798 1161 838 q 1140 726 1153 758 q 1110 692 1128 694 q 1013 706 1061 699 q 914 718 964 713 q 911 672 913 694 q 907 626 910 650 q 1022 633 972 631 q 1078 632 1071 635 q 1097 589 1090 624 q 1102 515 1103 554 q 1092 442 1101 475 q 1067 404 1083 408 l 881 419 q 876 367 878 393 q 871 317 874 342 q 949 333 911 325 q 1019 348 988 342 q 1070 358 1050 354 q 1094 360 1090 361 z "},"๎":{"ha":1292,"x_min":13,"x_max":1281,"o":"m 601 1001 q 626 953 618 992 q 633 871 635 914 q 617 793 631 828 q 581 756 604 758 l 318 786 q 310 693 314 740 q 304 600 307 646 q 388 601 339 601 q 481 600 436 601 q 559 597 526 599 q 594 594 592 596 q 611 551 607 585 q 612 481 615 518 q 598 415 608 444 q 569 381 588 385 l 285 410 q 281 326 282 371 q 278 236 279 282 q 276 145 276 190 q 274 61 275 100 q 261 42 271 50 q 235 28 253 35 q 186 22 217 22 q 137 28 154 22 q 108 43 119 35 q 92 64 96 51 q 86 168 89 113 q 81 278 83 217 q 76 407 79 339 l 63 408 q 53 422 57 411 q 47 449 50 432 q 47 497 44 465 q 59 567 50 547 q 72 589 68 586 q 71 717 71 658 q 72 815 71 775 l 36 819 q 24 833 29 822 q 16 860 19 843 q 15 908 13 876 q 24 958 18 939 q 36 986 29 976 q 51 1001 43 997 q 135 1003 90 1001 q 219 1005 172 1004 q 318 1007 267 1006 q 417 1008 368 1007 q 505 1008 465 1008 q 571 1006 544 1007 q 601 1001 597 1004 m 1247 974 q 1272 925 1264 964 q 1278 843 1281 886 q 1263 765 1276 800 q 1226 728 1250 731 l 960 764 q 956 727 957 740 q 954 701 956 714 q 952 675 953 689 q 950 639 951 661 q 1017 640 985 640 q 1076 640 1050 640 q 1119 640 1103 640 q 1139 638 1136 639 q 1156 590 1151 628 q 1158 508 1161 551 q 1146 430 1156 465 q 1118 390 1136 394 l 935 415 q 926 258 929 336 q 919 100 922 179 q 907 81 917 89 q 881 67 899 74 q 832 61 863 61 q 783 67 800 61 q 754 82 765 74 q 738 103 742 90 q 732 207 735 151 q 727 317 729 256 q 722 446 725 378 l 708 447 q 699 461 703 450 q 693 488 696 471 q 693 536 690 504 q 705 606 696 586 q 718 628 714 625 q 717 684 718 663 q 717 722 717 706 q 717 752 717 738 q 718 788 718 767 l 682 792 q 669 806 675 794 q 662 832 665 815 q 661 881 658 849 q 669 930 664 911 q 682 958 675 949 q 697 974 689 969 q 781 975 736 974 q 865 977 818 976 q 964 979 913 978 q 1063 980 1014 979 q 1151 980 1111 981 q 1217 978 1190 979 q 1247 974 1243 976 z "},"๎":{"ha":1444,"x_min":25,"x_max":1424,"o":"m 558 964 q 671 849 638 914 q 701 717 704 785 q 665 584 699 650 q 576 464 631 518 q 451 373 521 410 q 306 328 381 336 q 301 272 303 307 q 299 201 300 238 q 298 129 299 164 q 296 72 297 94 q 274 40 293 53 q 229 20 256 26 q 173 13 203 14 q 117 19 143 13 q 74 38 92 25 q 54 71 56 51 q 50 119 53 78 q 44 223 47 160 q 37 365 40 286 q 31 525 33 443 q 26 687 28 607 q 26 832 25 767 q 29 940 26 897 q 39 994 32 983 q 77 1026 51 1015 q 135 1040 103 1038 q 238 1045 182 1046 q 351 1035 294 1044 q 462 1008 408 1026 q 558 964 515 990 m 319 524 q 386 555 356 529 q 437 615 417 581 q 464 686 457 649 q 460 756 471 724 q 419 809 450 788 q 333 831 389 831 q 326 754 329 796 q 322 671 324 713 q 320 591 321 629 q 319 524 319 553 m 1278 889 q 1390 774 1357 839 q 1421 642 1424 710 q 1384 509 1418 575 q 1295 389 1350 443 q 1170 298 1240 335 q 1025 253 1100 261 q 1019 167 1021 210 q 1015 81 1018 125 q 1000 61 1014 69 q 965 47 989 54 q 901 39 942 40 q 835 44 860 38 q 796 58 810 50 q 774 79 781 67 q 763 206 768 139 q 755 335 758 264 q 749 486 751 407 q 746 638 746 563 q 747 773 746 713 q 751 873 749 833 q 758 919 754 913 q 797 951 771 940 q 854 965 822 963 q 958 970 901 971 q 1071 960 1014 969 q 1181 933 1128 951 q 1278 889 1235 915 m 1039 449 q 1106 477 1075 454 q 1159 531 1138 500 q 1190 595 1181 561 q 1191 658 1200 629 q 1152 706 1182 688 q 1067 725 1122 725 q 1051 587 1058 654 q 1039 449 1044 519 z "},"๎":{"ha":1238,"x_min":18,"x_max":1225,"o":"m 386 664 q 307 691 340 688 q 264 685 274 694 q 274 657 254 676 q 351 617 293 638 q 492 551 431 589 q 586 461 554 514 q 615 380 610 422 q 614 297 621 338 q 561 172 601 224 q 465 91 521 119 q 344 59 410 63 q 218 82 279 56 q 64 213 121 124 l 63 215 q 58 225 61 217 q 51 266 47 246 q 68 302 56 286 q 100 329 81 318 q 138 343 119 340 q 174 340 157 346 q 200 315 190 333 q 248 252 221 274 q 303 225 275 231 q 357 228 332 219 q 398 254 382 236 q 419 297 414 272 q 410 349 424 321 q 389 372 404 361 q 354 390 374 382 q 311 406 335 399 q 265 419 288 413 q 190 447 226 429 q 122 488 153 464 q 67 543 90 513 q 31 611 43 574 q 19 678 18 644 q 29 744 19 713 q 56 805 39 776 q 96 856 74 833 q 188 914 136 894 q 294 935 239 933 q 401 924 349 938 q 499 882 454 910 q 558 806 550 850 q 547 724 567 761 q 483 667 526 686 q 386 664 439 647 m 801 340 q 851 315 825 325 q 901 300 878 304 q 967 303 942 293 q 998 329 992 313 q 992 365 1004 346 q 949 396 981 385 q 847 426 896 413 q 758 457 799 439 q 657 551 688 490 q 632 678 626 613 q 674 802 638 744 q 775 888 711 860 q 865 908 817 906 q 960 902 913 911 q 1052 874 1007 893 q 1133 828 1097 854 q 1165 774 1163 807 q 1153 711 1168 740 q 1109 664 1138 682 q 1047 654 1081 646 q 1006 676 1031 663 q 955 698 981 689 q 903 708 929 707 q 858 693 878 708 q 851 655 839 678 q 915 625 863 632 q 1005 600 963 614 q 1083 567 1047 586 q 1147 522 1118 549 q 1196 456 1175 494 q 1222 336 1225 400 q 1194 229 1221 276 q 1126 149 1168 182 q 1031 97 1083 115 q 922 76 978 78 q 811 92 865 75 q 714 146 757 108 q 677 194 689 168 q 667 246 665 221 q 690 310 668 276 q 743 354 713 343 q 775 356 763 361 q 801 340 788 350 z "},"๎":{"ha":1424,"x_min":17,"x_max":1410,"o":"m 726 604 q 733 501 735 554 q 717 397 731 449 q 680 299 704 346 q 619 213 656 251 q 533 147 582 172 q 432 113 485 122 q 326 111 379 104 q 224 142 272 118 q 97 253 144 181 q 33 414 49 326 q 40 602 17 507 q 121 774 63 697 q 162 821 139 797 q 213 860 185 844 q 272 881 240 876 q 336 872 303 886 l 338 871 q 390 899 360 892 q 451 901 419 906 q 556 869 510 894 q 636 803 601 843 q 693 712 671 763 q 726 604 715 661 m 503 414 q 525 490 517 442 q 527 585 533 538 q 498 669 521 633 q 428 711 475 706 q 412 714 419 713 q 397 719 404 715 q 389 725 393 724 q 385 728 388 725 q 384 723 385 725 q 383 718 383 721 q 371 683 378 699 q 349 654 364 668 q 297 588 319 631 q 268 500 275 546 q 274 411 261 454 q 329 346 288 368 q 376 333 351 333 q 426 342 401 332 q 470 370 450 351 q 503 414 490 389 m 1240 825 q 1302 785 1276 818 q 1347 719 1328 753 q 1397 573 1385 656 q 1397 408 1410 490 q 1347 255 1385 326 q 1243 142 1308 183 q 1156 105 1201 115 q 1063 100 1110 94 q 972 126 1017 106 q 890 182 928 146 q 786 353 817 251 q 771 560 756 456 q 806 669 781 617 q 867 765 831 722 q 952 840 904 808 q 1057 885 1000 871 q 1106 892 1079 890 q 1159 890 1133 894 q 1206 870 1185 885 q 1240 828 1228 856 l 1240 825 m 1000 486 q 1012 386 997 425 q 1049 329 1026 347 q 1100 313 1072 311 q 1153 335 1128 315 q 1196 394 1178 356 q 1217 486 1214 432 q 1208 561 1218 518 q 1182 632 1199 604 q 1172 649 1178 640 q 1161 664 1167 657 q 1126 646 1144 650 q 1107 641 1117 643 q 1088 635 1097 639 q 1024 576 1044 618 q 1000 486 1003 535 z "},"D":{"ha":797,"x_min":1,"x_max":768,"o":"m 639 875 q 735 733 704 811 q 767 571 767 654 q 742 406 768 488 q 667 251 715 324 q 550 124 618 179 q 399 39 482 68 q 301 15 350 24 q 203 10 253 7 q 154 3 182 3 q 103 9 122 1 q 74 25 85 17 q 57 47 61 35 q 35 403 40 225 q 15 761 29 581 q 6 860 10 822 q 3 903 1 897 q 47 953 8 931 q 197 1007 117 993 q 356 1010 276 1021 q 508 966 435 1000 q 639 875 581 932 m 247 194 q 363 226 311 197 q 452 299 414 254 q 513 398 490 343 q 540 508 535 453 q 532 615 546 564 q 484 703 518 667 q 394 758 450 740 q 257 763 338 775 q 253 488 257 626 q 243 194 249 350 l 247 194 z "},"ร":{"ha":985,"x_min":1,"x_max":963,"o":"m 918 294 q 937 271 928 290 q 951 226 946 251 q 960 170 957 200 q 961 115 963 140 q 953 70 960 89 q 935 47 947 51 l 493 46 q 490 47 493 46 q 439 63 458 50 q 417 111 419 75 q 415 169 415 139 q 415 231 415 199 q 271 222 347 231 q 266 201 269 215 q 259 174 263 188 q 252 149 256 160 q 249 136 249 138 q 190 59 232 83 q 105 42 147 35 q 32 88 63 49 q 8 200 1 126 q 43 377 22 275 q 94 584 64 479 q 165 784 124 689 q 260 942 206 879 q 326 997 290 975 q 401 1026 363 1019 q 477 1024 439 1033 q 550 985 515 1014 q 613 992 579 988 q 682 1001 646 997 q 767 1012 725 1007 q 842 1020 808 1017 q 899 1025 876 1024 q 925 1025 921 1026 q 950 978 940 1017 q 960 897 960 940 q 953 818 961 854 q 925 776 944 782 l 690 785 l 663 614 l 665 614 q 752 620 710 617 q 829 626 794 624 q 886 628 864 628 q 913 628 908 629 q 939 582 929 619 q 951 501 949 544 q 944 422 953 458 q 914 379 935 385 q 771 388 842 383 q 628 399 700 392 q 617 328 621 363 q 610 258 613 293 l 610 250 l 694 264 q 772 277 733 271 q 842 288 811 283 q 894 294 874 293 q 918 294 915 296 m 419 418 q 424 547 422 483 q 431 672 426 611 q 419 769 438 763 q 369 679 401 775 q 331 544 349 618 q 301 418 314 471 q 360 419 331 418 q 419 418 389 419 z "},"รฆ":{"ha":913,"x_min":8,"x_max":894,"o":"m 828 360 q 847 339 838 356 q 864 298 857 322 q 875 247 871 274 q 879 196 879 219 q 874 155 879 172 q 857 133 868 138 l 425 103 q 413 113 418 104 q 401 135 407 119 q 389 178 394 150 q 388 189 388 182 l 283 179 q 212 173 247 175 q 147 169 176 171 q 99 165 118 167 q 76 163 81 164 q 43 169 60 158 q 17 206 26 181 q 10 273 8 232 q 29 369 11 314 q 85 551 64 481 q 120 665 107 621 q 142 735 133 710 q 161 781 151 760 q 206 853 179 821 q 263 906 232 885 q 329 938 294 928 q 399 946 364 949 q 483 915 446 942 l 639 924 q 721 925 681 925 q 794 924 761 925 q 847 922 826 924 q 871 918 868 921 q 890 874 885 910 q 890 798 894 838 q 874 726 886 758 q 843 692 861 694 q 746 706 794 699 q 647 718 697 713 q 644 672 646 694 q 640 626 643 650 q 755 633 706 631 q 811 632 804 635 q 830 589 824 624 q 835 515 836 554 q 826 442 835 475 q 800 404 817 408 l 614 419 l 619 319 q 693 335 657 328 q 758 349 729 343 q 805 358 786 354 q 828 360 824 361 m 351 618 q 319 501 332 560 q 289 381 307 442 q 344 376 317 378 q 400 372 372 375 q 394 474 397 417 q 393 596 392 531 l 390 618 q 382 653 386 643 q 373 660 378 663 q 363 647 368 658 q 351 618 357 635 z "},"ร":{"ha":750,"x_min":3,"x_max":736,"o":"m 503 682 q 365 658 419 692 q 285 569 311 625 q 260 449 258 514 q 288 333 261 385 q 365 253 314 281 q 492 244 417 225 q 549 267 521 251 q 606 301 578 282 q 675 308 644 319 q 719 267 706 296 q 726 203 733 239 q 683 136 719 167 q 535 56 617 79 q 372 40 453 33 q 375 -6 364 1 q 426 -14 386 -14 q 474 -17 451 -14 q 514 -40 497 -21 q 535 -92 535 -64 q 522 -144 536 -122 q 486 -180 508 -165 q 438 -202 464 -194 q 390 -214 413 -210 q 345 -217 367 -218 q 311 -204 324 -215 q 302 -190 304 -199 q 301 -172 300 -182 q 308 -155 303 -162 q 319 -143 313 -147 q 335 -140 326 -137 q 351 -144 344 -143 q 396 -143 374 -149 q 431 -129 418 -137 q 439 -113 443 -121 q 404 -106 435 -106 q 360 -104 381 -106 q 321 -94 339 -103 q 279 -46 288 -79 q 272 22 271 -12 q 272 41 272 31 q 274 63 272 51 q 235 79 254 69 q 199 101 215 89 q 81 226 128 150 q 21 392 35 301 q 34 606 3 506 q 132 783 65 707 q 294 903 199 858 q 500 951 389 949 q 594 941 544 953 q 679 906 643 929 q 725 840 714 881 q 727 760 736 800 q 691 688 718 719 q 622 650 664 657 q 592 652 607 647 q 564 663 578 657 q 535 675 550 669 q 503 682 519 681 z "},"รง":{"ha":732,"x_min":13,"x_max":719,"o":"m 268 625 q 242 503 239 567 q 274 388 246 440 q 326 322 296 344 q 388 300 357 300 q 449 322 419 300 q 500 388 479 343 q 546 421 514 415 q 603 419 578 426 q 662 370 646 407 q 660 296 678 333 q 606 208 639 247 q 531 143 572 169 q 440 106 489 117 q 340 101 392 94 q 348 64 335 69 q 397 58 361 58 q 445 55 422 58 q 485 32 468 51 q 506 -19 506 8 q 493 -72 507 -50 q 457 -108 479 -93 q 409 -130 435 -122 q 361 -142 383 -137 q 316 -144 338 -146 q 282 -132 294 -143 q 273 -118 275 -126 q 272 -100 271 -110 q 278 -83 274 -90 q 290 -71 283 -75 q 306 -68 297 -65 q 322 -72 315 -71 q 367 -71 344 -76 q 401 -57 389 -65 q 410 -41 414 -49 q 375 -33 406 -33 q 331 -32 351 -33 q 292 -22 310 -31 q 250 26 258 -7 q 243 94 242 60 l 243 133 q 117 243 167 174 q 44 390 68 313 q 30 611 13 503 q 114 807 47 719 q 205 891 153 857 q 315 941 257 925 q 433 953 372 957 q 549 924 493 950 q 649 850 607 896 q 711 742 692 804 q 703 664 719 700 q 658 605 688 628 q 590 578 628 582 q 515 599 551 575 q 496 622 503 607 q 481 651 489 638 q 428 704 458 692 q 369 709 399 717 q 312 678 339 701 q 268 625 285 656 z "},"ร":{"ha":742,"x_min":10,"x_max":728,"o":"m 719 604 q 726 501 728 554 q 710 397 724 449 q 673 299 697 346 q 613 213 649 251 q 538 154 579 178 q 450 119 496 131 q 356 108 404 107 q 264 122 308 108 q 261 117 261 119 q 238 96 251 100 q 215 98 225 92 q 199 118 204 104 q 199 150 193 132 l 199 151 q 85 262 128 192 q 26 414 42 332 q 33 602 10 507 q 114 774 56 697 q 155 821 132 797 q 206 860 178 844 q 265 881 233 876 q 329 872 296 886 l 331 871 q 383 899 353 892 q 444 901 413 906 q 522 881 488 894 q 559 894 539 894 q 595 882 579 893 q 621 851 611 871 q 626 806 631 831 q 685 714 663 765 q 719 604 708 663 m 342 654 q 296 599 317 635 q 265 524 275 564 q 259 445 256 485 q 286 376 263 406 q 343 510 313 444 q 389 613 367 563 q 432 708 411 664 l 421 711 q 405 714 413 713 q 390 719 397 715 q 382 725 386 724 q 378 728 381 725 q 377 723 378 725 q 376 718 376 721 q 364 683 371 699 q 342 654 357 668 m 496 414 q 519 499 511 444 q 517 604 528 553 q 443 469 479 536 q 371 332 407 401 q 442 353 407 331 q 496 414 476 375 z "},"รธ":{"ha":676,"x_min":8,"x_max":663,"o":"m 572 764 l 600 719 q 650 573 638 656 q 650 408 663 490 q 599 255 638 326 q 496 142 561 183 q 364 99 433 103 q 228 124 294 94 l 225 117 q 202 96 215 100 q 178 98 189 92 q 163 118 168 104 q 163 150 157 132 q 164 153 163 151 q 167 161 164 153 q 154 171 160 167 q 143 182 149 175 q 39 353 69 251 q 24 560 8 456 q 58 669 33 617 q 120 765 83 722 q 205 840 157 808 q 310 885 253 871 q 393 892 347 894 q 471 860 439 890 q 476 869 474 867 q 481 875 479 872 q 522 893 499 893 q 563 879 544 893 q 589 840 581 865 q 585 785 597 815 l 572 764 m 469 486 q 467 524 469 503 q 460 567 465 544 q 326 317 390 442 q 373 317 349 310 q 417 347 397 325 q 452 403 438 368 q 469 486 467 439 m 253 486 q 260 401 251 439 q 283 456 271 429 q 307 510 294 482 l 365 643 l 340 635 q 276 576 297 618 q 253 486 256 535 z "},"ร":{"ha":790,"x_min":7,"x_max":772,"o":"m 551 1133 q 551 1124 553 1129 q 532 1090 550 1114 q 513 1070 521 1076 q 500 1061 506 1064 q 490 1057 494 1057 q 397 1119 439 1092 q 332 1164 361 1143 q 301 1189 303 1185 q 308 1215 299 1197 q 331 1251 317 1233 q 362 1281 346 1268 q 386 1289 378 1293 l 551 1133 m 772 167 q 772 153 772 160 q 769 138 772 146 q 750 106 764 122 q 706 81 736 90 q 655 82 676 72 q 619 106 633 92 q 590 167 599 128 q 575 238 582 206 q 499 233 535 235 q 426 231 463 232 q 353 228 390 231 q 276 222 317 226 q 272 201 275 215 q 265 174 268 188 q 258 149 261 160 q 254 136 254 138 q 195 59 238 83 q 110 42 153 35 q 38 88 68 49 q 14 200 7 126 q 49 377 28 275 q 99 584 69 479 q 170 784 129 689 q 265 942 211 879 q 342 1003 300 981 q 428 1029 385 1026 q 515 1012 472 1032 q 593 944 557 992 q 648 844 624 903 q 691 719 672 786 q 724 578 710 651 q 747 433 738 504 q 762 296 756 361 q 772 179 768 231 l 772 167 m 307 418 q 425 419 367 419 q 543 415 483 418 q 508 585 528 500 q 456 754 489 671 q 436 780 447 774 q 408 756 425 786 q 379 689 393 731 q 351 599 365 647 q 326 503 338 551 q 307 418 315 454 z "},"ร":{"ha":790,"x_min":7,"x_max":772,"o":"m 433 1289 q 458 1281 442 1293 q 488 1251 474 1268 q 513 1215 503 1233 q 519 1189 522 1197 q 488 1164 517 1185 q 424 1119 460 1143 q 331 1057 382 1092 q 319 1061 325 1057 q 307 1070 314 1064 q 289 1090 300 1076 q 274 1110 278 1103 q 268 1124 269 1118 q 268 1133 267 1129 l 433 1289 m 772 167 q 772 153 772 160 q 769 138 772 146 q 750 106 764 122 q 706 81 736 90 q 655 82 676 72 q 619 106 633 92 q 590 167 599 128 q 575 238 582 206 q 499 233 535 235 q 426 231 463 232 q 353 228 390 231 q 276 222 317 226 q 272 201 275 215 q 265 174 268 188 q 258 149 261 160 q 254 136 254 138 q 195 59 238 83 q 110 42 153 35 q 38 88 68 49 q 14 200 7 126 q 49 377 28 275 q 99 584 69 479 q 170 784 129 689 q 265 942 211 879 q 342 1003 300 981 q 428 1029 385 1026 q 515 1012 472 1032 q 593 944 557 992 q 648 844 624 903 q 691 719 672 786 q 724 578 710 651 q 747 433 738 504 q 762 296 756 361 q 772 179 768 231 l 772 167 m 307 418 q 425 419 367 419 q 543 415 483 418 q 508 585 528 500 q 456 754 489 671 q 436 780 447 774 q 408 756 425 786 q 379 689 393 731 q 351 599 365 647 q 326 503 338 551 q 307 418 315 454 z "},"ร":{"ha":790,"x_min":7,"x_max":772,"o":"m 299 1097 q 337 1180 317 1138 q 388 1254 357 1222 q 421 1277 403 1269 q 456 1284 439 1285 q 488 1273 472 1283 q 513 1243 503 1263 q 542 1159 535 1203 q 554 1071 549 1115 q 542 1053 553 1058 q 517 1047 531 1047 q 494 1050 504 1046 q 483 1063 483 1054 q 447 1171 465 1175 q 392 1060 428 1167 q 367 1048 385 1050 q 333 1051 350 1046 q 306 1067 317 1056 q 299 1097 294 1079 m 772 167 q 772 153 772 160 q 769 138 772 146 q 750 106 764 122 q 706 81 736 90 q 655 82 676 72 q 619 106 633 92 q 590 167 599 128 q 575 238 582 206 q 499 233 535 235 q 426 231 463 232 q 353 228 390 231 q 276 222 317 226 q 272 201 275 215 q 265 174 268 188 q 258 149 261 160 q 254 136 254 138 q 195 59 238 83 q 110 42 153 35 q 38 88 68 49 q 14 200 7 126 q 49 377 28 275 q 99 584 69 479 q 170 784 129 689 q 265 942 211 879 q 342 1003 300 981 q 428 1029 385 1026 q 515 1012 472 1032 q 593 944 557 992 q 648 844 624 903 q 691 719 672 786 q 724 578 710 651 q 747 433 738 504 q 762 296 756 361 q 772 179 768 231 l 772 167 m 307 418 q 425 419 367 419 q 543 415 483 418 q 508 585 528 500 q 456 754 489 671 q 436 780 447 774 q 408 756 425 786 q 379 689 393 731 q 351 599 365 647 q 326 503 338 551 q 307 418 315 454 z "},"ร":{"ha":790,"x_min":7,"x_max":772,"o":"m 235 1143 q 253 1190 242 1164 q 282 1236 265 1215 q 320 1271 299 1257 q 368 1283 342 1285 q 410 1265 392 1283 q 436 1226 429 1246 q 445 1203 438 1221 q 460 1172 453 1185 q 473 1158 467 1158 q 479 1189 479 1158 q 491 1209 479 1201 q 517 1219 503 1217 q 544 1216 532 1221 q 557 1199 557 1211 q 553 1126 563 1160 q 517 1069 543 1093 q 478 1051 501 1056 q 431 1056 454 1047 q 397 1082 410 1065 q 375 1117 385 1099 q 360 1141 367 1138 q 350 1138 354 1144 q 342 1119 346 1132 q 332 1097 338 1107 q 307 1084 325 1086 q 271 1089 289 1082 q 240 1108 253 1094 q 235 1143 228 1121 m 772 167 q 772 153 772 160 q 769 138 772 146 q 750 106 764 122 q 706 81 736 90 q 655 82 676 72 q 619 106 633 92 q 590 167 599 128 q 575 238 582 206 q 499 233 535 235 q 426 231 463 232 q 353 228 390 231 q 276 222 317 226 q 272 201 275 215 q 265 174 268 188 q 258 149 261 160 q 254 136 254 138 q 195 59 238 83 q 110 42 153 35 q 38 88 68 49 q 14 200 7 126 q 49 377 28 275 q 99 584 69 479 q 170 784 129 689 q 265 942 211 879 q 342 1003 300 981 q 428 1029 385 1026 q 515 1012 472 1032 q 593 944 557 992 q 648 844 624 903 q 691 719 672 786 q 724 578 710 651 q 747 433 738 504 q 762 296 756 361 q 772 179 768 231 l 772 167 m 307 418 q 425 419 367 419 q 543 415 483 418 q 508 585 528 500 q 456 754 489 671 q 436 780 447 774 q 408 756 425 786 q 379 689 393 731 q 351 599 365 647 q 326 503 338 551 q 307 418 315 454 z "},"ร":{"ha":790,"x_min":7,"x_max":772,"o":"m 404 1135 q 386 1090 404 1108 q 340 1071 368 1071 q 294 1090 313 1071 q 276 1135 276 1108 q 294 1181 276 1163 q 340 1199 313 1199 q 386 1181 368 1199 q 404 1135 404 1163 m 571 1135 q 553 1090 571 1108 q 507 1071 535 1071 q 461 1090 479 1071 q 443 1135 443 1108 q 461 1181 443 1163 q 507 1199 479 1199 q 553 1181 535 1199 q 571 1135 571 1163 m 772 167 q 772 153 772 160 q 769 138 772 146 q 750 106 764 122 q 706 81 736 90 q 655 82 676 72 q 619 106 633 92 q 590 167 599 128 q 575 238 582 206 q 499 233 535 235 q 426 231 463 232 q 353 228 390 231 q 276 222 317 226 q 272 201 275 215 q 265 174 268 188 q 258 149 261 160 q 254 136 254 138 q 195 59 238 83 q 110 42 153 35 q 38 88 68 49 q 14 200 7 126 q 49 377 28 275 q 99 584 69 479 q 170 784 129 689 q 265 942 211 879 q 342 1003 300 981 q 428 1029 385 1026 q 515 1012 472 1032 q 593 944 557 992 q 648 844 624 903 q 691 719 672 786 q 724 578 710 651 q 747 433 738 504 q 762 296 756 361 q 772 179 768 231 l 772 167 m 307 418 q 425 419 367 419 q 543 415 483 418 q 508 585 528 500 q 456 754 489 671 q 436 780 447 774 q 408 756 425 786 q 379 689 393 731 q 351 599 365 647 q 326 503 338 551 q 307 418 315 454 z "},"ร":{"ha":790,"x_min":7,"x_max":772,"o":"m 435 1082 q 359 1113 390 1082 q 328 1190 328 1144 q 359 1265 328 1235 q 435 1296 390 1296 q 510 1265 479 1296 q 542 1190 542 1235 q 510 1113 542 1144 q 435 1082 479 1082 m 435 1232 q 406 1220 417 1232 q 396 1193 396 1208 q 435 1150 396 1150 q 474 1193 474 1150 q 463 1220 474 1208 q 435 1232 453 1232 m 772 167 q 772 153 772 160 q 769 138 772 146 q 750 106 764 122 q 706 81 736 90 q 655 82 676 72 q 619 106 633 92 q 590 167 599 128 q 575 238 582 206 q 499 233 535 235 q 426 231 463 232 q 353 228 390 231 q 276 222 317 226 q 272 201 275 215 q 265 174 268 188 q 258 149 261 160 q 254 136 254 138 q 195 59 238 83 q 110 42 153 35 q 38 88 68 49 q 14 200 7 126 q 49 377 28 275 q 99 584 69 479 q 170 784 129 689 q 265 942 211 879 q 342 1003 300 981 q 428 1029 385 1026 q 515 1012 472 1032 q 593 944 557 992 q 648 844 624 903 q 691 719 672 786 q 724 578 710 651 q 747 433 738 504 q 762 296 756 361 q 772 179 768 231 l 772 167 m 307 418 q 425 419 367 419 q 543 415 483 418 q 508 585 528 500 q 456 754 489 671 q 436 780 447 774 q 408 756 425 786 q 379 689 393 731 q 351 599 365 647 q 326 503 338 551 q 307 418 315 454 z "},"ร":{"ha":608,"x_min":21,"x_max":586,"o":"m 429 1133 q 429 1124 431 1129 q 410 1090 428 1114 q 391 1070 399 1076 q 378 1061 383 1064 q 368 1057 372 1057 q 275 1119 317 1092 q 210 1164 239 1143 q 179 1189 181 1185 q 185 1215 176 1197 q 209 1251 194 1233 q 240 1281 224 1268 q 264 1289 256 1293 l 429 1133 m 542 294 q 560 271 551 290 q 575 226 569 251 q 583 170 581 200 q 585 115 586 140 q 577 70 583 89 q 558 47 571 51 l 117 46 q 114 47 117 46 q 63 63 82 50 q 40 111 43 75 q 31 263 31 186 q 38 424 32 340 q 26 445 32 428 q 24 508 21 463 q 35 572 26 553 q 50 599 43 592 q 60 737 54 678 q 68 818 65 796 q 63 842 65 828 q 58 876 60 856 q 60 926 57 907 q 68 956 64 944 q 79 972 74 968 q 150 982 113 976 q 222 991 182 986 q 306 1001 263 996 q 390 1012 349 1007 q 466 1020 432 1017 q 522 1025 500 1024 q 549 1025 544 1026 q 574 978 564 1017 q 584 897 583 940 q 576 818 585 854 q 549 776 568 782 l 314 785 l 286 614 l 289 614 q 376 620 333 617 q 453 626 418 624 q 510 628 488 628 q 536 628 532 629 q 563 582 553 619 q 574 501 572 544 q 567 422 576 458 q 538 379 558 385 q 394 388 465 383 q 251 399 324 392 q 240 328 244 363 q 233 258 236 293 l 233 250 q 274 257 253 253 q 318 264 296 261 q 396 277 357 271 q 466 288 435 283 q 518 294 497 293 q 542 294 539 296 z "},"ร":{"ha":608,"x_min":21,"x_max":586,"o":"m 342 1289 q 366 1281 350 1293 q 397 1251 382 1268 q 421 1215 411 1233 q 428 1189 431 1197 q 397 1164 425 1185 q 332 1119 368 1143 q 239 1057 290 1092 q 228 1061 233 1057 q 215 1070 222 1064 q 197 1090 208 1076 q 182 1110 186 1103 q 176 1124 178 1118 q 176 1133 175 1129 l 342 1289 m 542 294 q 560 271 551 290 q 575 226 569 251 q 583 170 581 200 q 585 115 586 140 q 577 70 583 89 q 558 47 571 51 l 117 46 q 114 47 117 46 q 63 63 82 50 q 40 111 43 75 q 31 263 31 186 q 38 424 32 340 q 26 445 32 428 q 24 508 21 463 q 35 572 26 553 q 50 599 43 592 q 60 737 54 678 q 68 818 65 796 q 63 842 65 828 q 58 876 60 856 q 60 926 57 907 q 68 956 64 944 q 79 972 74 968 q 150 982 113 976 q 222 991 182 986 q 306 1001 263 996 q 390 1012 349 1007 q 466 1020 432 1017 q 522 1025 500 1024 q 549 1025 544 1026 q 574 978 564 1017 q 584 897 583 940 q 576 818 585 854 q 549 776 568 782 l 314 785 l 286 614 l 289 614 q 376 620 333 617 q 453 626 418 624 q 510 628 488 628 q 536 628 532 629 q 563 582 553 619 q 574 501 572 544 q 567 422 576 458 q 538 379 558 385 q 394 388 465 383 q 251 399 324 392 q 240 328 244 363 q 233 258 236 293 l 233 250 q 274 257 253 253 q 318 264 296 261 q 396 277 357 271 q 466 288 435 283 q 518 294 497 293 q 542 294 539 296 z "},"ร":{"ha":608,"x_min":21,"x_max":586,"o":"m 182 1097 q 220 1180 200 1138 q 271 1254 240 1222 q 304 1277 286 1269 q 339 1284 322 1285 q 371 1273 356 1283 q 396 1243 386 1263 q 425 1159 418 1203 q 438 1071 432 1115 q 425 1053 436 1058 q 401 1047 414 1047 q 377 1050 388 1046 q 367 1063 367 1054 q 330 1171 349 1175 q 275 1060 311 1167 q 251 1048 268 1050 q 217 1051 233 1046 q 189 1067 200 1056 q 182 1097 178 1079 m 542 294 q 560 271 551 290 q 575 226 569 251 q 583 170 581 200 q 585 115 586 140 q 577 70 583 89 q 558 47 571 51 l 117 46 q 114 47 117 46 q 63 63 82 50 q 40 111 43 75 q 31 263 31 186 q 38 424 32 340 q 26 445 32 428 q 24 508 21 463 q 35 572 26 553 q 50 599 43 592 q 60 737 54 678 q 68 818 65 796 q 63 842 65 828 q 58 876 60 856 q 60 926 57 907 q 68 956 64 944 q 79 972 74 968 q 150 982 113 976 q 222 991 182 986 q 306 1001 263 996 q 390 1012 349 1007 q 466 1020 432 1017 q 522 1025 500 1024 q 549 1025 544 1026 q 574 978 564 1017 q 584 897 583 940 q 576 818 585 854 q 549 776 568 782 l 314 785 l 286 614 l 289 614 q 376 620 333 617 q 453 626 418 624 q 510 628 488 628 q 536 628 532 629 q 563 582 553 619 q 574 501 572 544 q 567 422 576 458 q 538 379 558 385 q 394 388 465 383 q 251 399 324 392 q 240 328 244 363 q 233 258 236 293 l 233 250 q 274 257 253 253 q 318 264 296 261 q 396 277 357 271 q 466 288 435 283 q 518 294 497 293 q 542 294 539 296 z "},"ร":{"ha":608,"x_min":21,"x_max":586,"o":"m 288 1121 q 269 1076 288 1094 q 224 1057 251 1057 q 178 1076 196 1057 q 160 1121 160 1094 q 178 1167 160 1149 q 224 1185 196 1185 q 269 1167 251 1185 q 288 1121 288 1149 m 454 1121 q 436 1076 454 1094 q 390 1057 418 1057 q 344 1076 363 1057 q 326 1121 326 1094 q 344 1167 326 1149 q 390 1185 363 1185 q 436 1167 418 1185 q 454 1121 454 1149 m 542 294 q 560 271 551 290 q 575 226 569 251 q 583 170 581 200 q 585 115 586 140 q 577 70 583 89 q 558 47 571 51 l 117 46 q 114 47 117 46 q 63 63 82 50 q 40 111 43 75 q 31 263 31 186 q 38 424 32 340 q 26 445 32 428 q 24 508 21 463 q 35 572 26 553 q 50 599 43 592 q 60 737 54 678 q 68 818 65 796 q 63 842 65 828 q 58 876 60 856 q 60 926 57 907 q 68 956 64 944 q 79 972 74 968 q 150 982 113 976 q 222 991 182 986 q 306 1001 263 996 q 390 1012 349 1007 q 466 1020 432 1017 q 522 1025 500 1024 q 549 1025 544 1026 q 574 978 564 1017 q 584 897 583 940 q 576 818 585 854 q 549 776 568 782 l 314 785 l 286 614 l 289 614 q 376 620 333 617 q 453 626 418 624 q 510 628 488 628 q 536 628 532 629 q 563 582 553 619 q 574 501 572 544 q 567 422 576 458 q 538 379 558 385 q 394 388 465 383 q 251 399 324 392 q 240 328 244 363 q 233 258 236 293 l 233 250 q 274 257 253 253 q 318 264 296 261 q 396 277 357 271 q 466 288 435 283 q 518 294 497 293 q 542 294 539 296 z "},"ร":{"ha":275,"x_min":18,"x_max":285,"o":"m 283 1090 q 283 1081 285 1086 q 264 1047 282 1071 q 245 1027 253 1033 q 232 1018 238 1021 q 222 1014 226 1014 q 129 1076 171 1049 q 64 1121 93 1100 q 33 1146 35 1142 q 40 1172 31 1154 q 63 1208 49 1190 q 94 1238 78 1225 q 118 1246 110 1250 l 283 1090 m 268 903 q 244 506 260 704 q 207 110 229 308 q 193 92 204 99 q 165 80 183 85 q 117 78 147 75 q 67 88 85 81 q 40 104 50 96 q 25 126 29 114 q 26 244 26 182 q 26 366 26 297 q 25 508 26 435 q 23 651 25 581 q 20 778 21 721 q 19 872 19 835 q 19 914 18 908 q 45 944 25 932 q 92 962 65 956 q 148 969 118 968 q 203 962 178 969 q 247 940 229 954 q 268 903 265 925 z "},"ร":{"ha":275,"x_min":6,"x_max":268,"o":"m 172 1236 q 197 1228 181 1240 q 227 1198 213 1215 q 251 1163 242 1181 q 258 1136 261 1144 q 227 1111 256 1132 q 163 1067 199 1090 q 69 1004 121 1039 q 58 1008 64 1004 q 46 1017 53 1011 q 28 1038 39 1024 q 13 1058 17 1050 q 7 1071 8 1065 q 7 1081 6 1076 l 172 1236 m 268 903 q 244 506 260 704 q 207 110 229 308 q 193 92 204 99 q 165 80 183 85 q 117 78 147 75 q 67 88 85 81 q 40 104 50 96 q 25 126 29 114 q 26 244 26 182 q 26 366 26 297 q 25 508 26 435 q 23 651 25 581 q 20 778 21 721 q 19 872 19 835 q 19 914 18 908 q 45 944 25 932 q 92 962 65 956 q 148 969 118 968 q 203 962 178 969 q 247 940 229 954 q 268 903 265 925 z "},"ร":{"ha":275,"x_min":11,"x_max":271,"o":"m 15 1072 q 53 1155 33 1113 q 104 1229 74 1197 q 138 1252 119 1244 q 172 1259 156 1260 q 204 1248 189 1258 q 229 1218 219 1238 q 258 1134 251 1178 q 271 1046 265 1090 q 258 1028 269 1033 q 234 1022 247 1022 q 210 1025 221 1021 q 200 1038 200 1029 q 163 1146 182 1150 q 108 1035 144 1142 q 84 1023 101 1025 q 50 1026 67 1021 q 22 1042 33 1031 q 15 1072 11 1054 m 268 903 q 244 506 260 704 q 207 110 229 308 q 193 92 204 99 q 165 80 183 85 q 117 78 147 75 q 67 88 85 81 q 40 104 50 96 q 25 126 29 114 q 26 244 26 182 q 26 366 26 297 q 25 508 26 435 q 23 651 25 581 q 20 778 21 721 q 19 872 19 835 q 19 914 18 908 q 45 944 25 932 q 92 962 65 956 q 148 969 118 968 q 203 962 178 969 q 247 940 229 954 q 268 903 265 925 z "},"ร":{"ha":275,"x_min":0,"x_max":294,"o":"m 128 1094 q 110 1049 128 1068 q 64 1031 92 1031 q 18 1049 36 1031 q 0 1094 0 1068 q 18 1140 0 1122 q 64 1158 36 1158 q 110 1140 92 1158 q 128 1094 128 1122 m 294 1094 q 276 1049 294 1068 q 231 1031 258 1031 q 185 1049 203 1031 q 167 1094 167 1068 q 185 1140 167 1122 q 231 1158 203 1158 q 276 1140 258 1158 q 294 1094 294 1122 m 268 903 q 244 506 260 704 q 207 110 229 308 q 193 92 204 99 q 165 80 183 85 q 117 78 147 75 q 67 88 85 81 q 40 104 50 96 q 25 126 29 114 q 26 244 26 182 q 26 366 26 297 q 25 508 26 435 q 23 651 25 581 q 20 778 21 721 q 19 872 19 835 q 19 914 18 908 q 45 944 25 932 q 92 962 65 956 q 148 969 118 968 q 203 962 178 969 q 247 940 229 954 q 268 903 265 925 z "},"ร":{"ha":817,"x_min":18,"x_max":788,"o":"m 658 875 q 755 733 724 811 q 787 571 786 654 q 761 406 788 488 q 686 251 735 324 q 569 124 638 179 q 418 39 501 68 q 321 15 369 24 q 222 10 272 7 q 174 3 201 3 q 123 9 142 1 q 93 25 104 17 q 76 47 81 35 q 63 222 68 135 q 54 399 58 310 q 42 401 42 401 q 24 431 29 407 q 18 483 18 456 q 25 535 18 511 q 46 565 32 558 q 40 663 43 614 q 35 761 38 713 q 25 860 29 822 q 22 903 21 897 q 67 953 28 931 q 216 1007 136 993 q 375 1010 296 1021 q 527 966 454 1000 q 658 875 600 932 m 267 194 q 382 226 331 197 q 472 299 433 254 q 532 398 510 343 q 560 508 554 453 q 551 615 565 564 q 503 703 538 667 q 413 758 469 740 q 276 763 357 775 q 276 654 276 708 q 274 544 275 600 l 417 531 q 425 522 421 528 q 430 504 428 515 q 432 472 432 493 q 427 439 431 451 q 421 419 424 426 q 411 408 415 411 q 369 407 393 408 q 324 405 350 406 q 269 403 297 404 q 265 300 267 351 q 263 194 264 249 l 267 194 z "},"ร":{"ha":735,"x_min":17,"x_max":744,"o":"m 207 1143 q 226 1190 214 1164 q 254 1236 238 1215 q 292 1271 271 1257 q 340 1283 314 1285 q 383 1265 364 1283 q 408 1226 401 1246 q 417 1203 410 1221 q 432 1172 425 1185 q 445 1158 439 1158 q 451 1189 451 1158 q 463 1209 451 1201 q 490 1219 475 1217 q 517 1216 504 1221 q 529 1199 529 1211 q 525 1126 535 1160 q 489 1069 515 1093 q 450 1051 474 1056 q 403 1056 426 1047 q 369 1082 382 1065 q 347 1117 357 1099 q 333 1141 339 1138 q 322 1138 326 1144 q 314 1119 318 1132 q 304 1097 310 1107 q 279 1084 297 1086 q 243 1089 261 1082 q 213 1108 225 1094 q 207 1143 200 1121 m 499 990 q 547 1033 508 1019 q 629 1044 586 1047 q 707 1020 672 1040 q 744 963 742 1000 q 674 97 700 529 q 661 76 671 85 q 635 63 653 69 q 586 58 617 57 q 537 66 554 58 q 508 82 519 74 q 492 106 496 92 q 460 152 482 119 q 408 233 439 185 q 339 342 378 281 q 256 475 300 403 l 246 88 q 233 68 243 76 q 208 54 225 61 q 160 46 190 47 q 109 51 128 44 q 79 65 90 58 q 63 86 67 74 q 54 208 58 143 q 47 334 51 264 q 38 479 42 404 q 28 626 33 554 q 21 758 24 699 q 17 855 18 817 q 19 900 17 893 q 58 938 26 924 q 128 956 89 953 q 203 949 167 958 q 256 914 239 939 q 280 874 269 892 q 301 835 290 856 q 324 790 311 815 q 358 728 338 765 q 410 640 379 692 q 486 517 440 589 q 487 676 486 594 q 489 825 488 757 q 493 939 490 893 q 499 990 496 985 z "},"ร":{"ha":742,"x_min":10,"x_max":728,"o":"m 499 1028 q 499 1018 500 1024 q 479 985 497 1008 q 460 965 468 971 q 447 956 453 958 q 438 951 442 951 q 344 1014 386 986 q 279 1058 308 1038 q 249 1083 250 1079 q 255 1110 246 1092 q 278 1145 264 1128 q 309 1175 293 1163 q 333 1183 325 1188 l 499 1028 m 719 604 q 726 501 728 554 q 710 397 724 449 q 673 299 697 346 q 613 213 649 251 q 526 147 575 172 q 425 113 478 122 q 319 111 372 104 q 217 142 265 118 q 90 253 138 181 q 26 414 42 326 q 33 602 10 507 q 114 774 56 697 q 155 821 132 797 q 206 860 178 844 q 265 881 233 876 q 329 872 296 886 l 331 871 q 383 899 353 892 q 444 901 413 906 q 549 869 503 894 q 629 803 594 843 q 686 712 664 763 q 719 604 708 661 m 496 414 q 518 490 510 442 q 520 585 526 538 q 491 669 514 633 q 421 711 468 706 q 405 714 413 713 q 390 719 397 715 q 382 725 386 724 q 378 728 381 725 q 377 723 378 725 q 376 718 376 721 q 364 683 371 699 q 342 654 357 668 q 290 588 313 631 q 261 500 268 546 q 267 411 254 454 q 322 346 281 368 q 369 333 344 333 q 419 342 394 332 q 463 370 443 351 q 496 414 483 389 z "},"ร":{"ha":742,"x_min":10,"x_max":728,"o":"m 396 1167 q 420 1158 404 1171 q 451 1128 436 1146 q 475 1093 465 1111 q 482 1067 485 1075 q 451 1042 479 1063 q 386 997 422 1021 q 293 935 344 969 q 282 939 288 935 q 269 948 276 942 q 251 968 263 954 q 236 988 240 981 q 231 1001 232 996 q 231 1011 229 1007 l 396 1167 m 719 604 q 726 501 728 554 q 710 397 724 449 q 673 299 697 346 q 613 213 649 251 q 526 147 575 172 q 425 113 478 122 q 319 111 372 104 q 217 142 265 118 q 90 253 138 181 q 26 414 42 326 q 33 602 10 507 q 114 774 56 697 q 155 821 132 797 q 206 860 178 844 q 265 881 233 876 q 329 872 296 886 l 331 871 q 383 899 353 892 q 444 901 413 906 q 549 869 503 894 q 629 803 594 843 q 686 712 664 763 q 719 604 708 661 m 496 414 q 518 490 510 442 q 520 585 526 538 q 491 669 514 633 q 421 711 468 706 q 405 714 413 713 q 390 719 397 715 q 382 725 386 724 q 378 728 381 725 q 377 723 378 725 q 376 718 376 721 q 364 683 371 699 q 342 654 357 668 q 290 588 313 631 q 261 500 268 546 q 267 411 254 454 q 322 346 281 368 q 369 333 344 333 q 419 342 394 332 q 463 370 443 351 q 496 414 483 389 z "},"ร":{"ha":742,"x_min":10,"x_max":728,"o":"m 246 1001 q 284 1084 264 1042 q 335 1158 304 1126 q 368 1181 350 1174 q 403 1188 386 1189 q 435 1177 419 1188 q 460 1147 450 1167 q 489 1063 482 1107 q 501 975 496 1019 q 489 957 500 963 q 465 951 478 951 q 441 954 451 950 q 431 967 431 958 q 394 1075 413 1079 q 339 964 375 1071 q 315 952 332 954 q 281 955 297 950 q 253 972 264 960 q 246 1001 242 983 m 719 604 q 726 501 728 554 q 710 397 724 449 q 673 299 697 346 q 613 213 649 251 q 526 147 575 172 q 425 113 478 122 q 319 111 372 104 q 217 142 265 118 q 90 253 138 181 q 26 414 42 326 q 33 602 10 507 q 114 774 56 697 q 155 821 132 797 q 206 860 178 844 q 265 881 233 876 q 329 872 296 886 l 331 871 q 383 899 353 892 q 444 901 413 906 q 549 869 503 894 q 629 803 594 843 q 686 712 664 763 q 719 604 708 661 m 496 414 q 518 490 510 442 q 520 585 526 538 q 491 669 514 633 q 421 711 468 706 q 405 714 413 713 q 390 719 397 715 q 382 725 386 724 q 378 728 381 725 q 377 723 378 725 q 376 718 376 721 q 364 683 371 699 q 342 654 357 668 q 290 588 313 631 q 261 500 268 546 q 267 411 254 454 q 322 346 281 368 q 369 333 344 333 q 419 342 394 332 q 463 370 443 351 q 496 414 483 389 z "},"ร":{"ha":742,"x_min":10,"x_max":728,"o":"m 210 1054 q 228 1101 217 1075 q 257 1147 240 1126 q 295 1182 274 1168 q 343 1194 317 1196 q 385 1176 367 1194 q 411 1138 404 1157 q 420 1114 413 1132 q 435 1083 428 1096 q 448 1069 442 1069 q 454 1100 454 1069 q 466 1120 454 1113 q 492 1130 478 1128 q 519 1127 507 1132 q 532 1110 532 1122 q 528 1038 538 1071 q 492 981 518 1004 q 453 963 476 967 q 406 967 429 958 q 372 993 385 976 q 350 1028 360 1010 q 335 1052 342 1049 q 325 1049 329 1056 q 317 1031 321 1043 q 307 1008 313 1018 q 282 995 300 997 q 246 1000 264 993 q 215 1019 228 1006 q 210 1054 203 1032 m 719 604 q 726 501 728 554 q 710 397 724 449 q 673 299 697 346 q 613 213 649 251 q 526 147 575 172 q 425 113 478 122 q 319 111 372 104 q 217 142 265 118 q 90 253 138 181 q 26 414 42 326 q 33 602 10 507 q 114 774 56 697 q 155 821 132 797 q 206 860 178 844 q 265 881 233 876 q 329 872 296 886 l 331 871 q 383 899 353 892 q 444 901 413 906 q 549 869 503 894 q 629 803 594 843 q 686 712 664 763 q 719 604 708 661 m 496 414 q 518 490 510 442 q 520 585 526 538 q 491 669 514 633 q 421 711 468 706 q 405 714 413 713 q 390 719 397 715 q 382 725 386 724 q 378 728 381 725 q 377 723 378 725 q 376 718 376 721 q 364 683 371 699 q 342 654 357 668 q 290 588 313 631 q 261 500 268 546 q 267 411 254 454 q 322 346 281 368 q 369 333 344 333 q 419 342 394 332 q 463 370 443 351 q 496 414 483 389 z "},"ร":{"ha":742,"x_min":10,"x_max":728,"o":"m 347 1017 q 329 972 347 990 q 283 953 311 953 q 238 972 256 953 q 219 1017 219 990 q 238 1063 219 1044 q 283 1081 256 1081 q 329 1063 311 1081 q 347 1017 347 1044 m 514 1017 q 496 972 514 990 q 450 953 478 953 q 404 972 422 953 q 386 1017 386 990 q 404 1063 386 1044 q 450 1081 422 1081 q 496 1063 478 1081 q 514 1017 514 1044 m 719 604 q 726 501 728 554 q 710 397 724 449 q 673 299 697 346 q 613 213 649 251 q 526 147 575 172 q 425 113 478 122 q 319 111 372 104 q 217 142 265 118 q 90 253 138 181 q 26 414 42 326 q 33 602 10 507 q 114 774 56 697 q 155 821 132 797 q 206 860 178 844 q 265 881 233 876 q 329 872 296 886 l 331 871 q 383 899 353 892 q 444 901 413 906 q 549 869 503 894 q 629 803 594 843 q 686 712 664 763 q 719 604 708 661 m 496 414 q 518 490 510 442 q 520 585 526 538 q 491 669 514 633 q 421 711 468 706 q 405 714 413 713 q 390 719 397 715 q 382 725 386 724 q 378 728 381 725 q 377 723 378 725 q 376 718 376 721 q 364 683 371 699 q 342 654 357 668 q 290 588 313 631 q 261 500 268 546 q 267 411 254 454 q 322 346 281 368 q 369 333 344 333 q 419 342 394 332 q 463 370 443 351 q 496 414 483 389 z "},"ร":{"ha":732,"x_min":18,"x_max":713,"o":"m 435 1154 q 459 1146 443 1158 q 490 1116 475 1133 q 514 1081 504 1099 q 521 1054 524 1063 q 490 1029 518 1050 q 425 985 461 1008 q 332 922 383 957 q 321 926 326 922 q 308 935 315 929 q 290 956 301 942 q 275 976 279 968 q 269 989 271 983 q 269 999 268 994 l 435 1154 m 274 581 q 278 442 267 499 q 313 352 290 385 q 366 313 336 319 q 425 324 396 306 q 477 388 454 343 q 511 506 500 433 q 518 578 515 539 q 522 657 521 617 q 522 737 522 697 q 521 813 522 776 q 547 859 521 840 q 605 881 572 878 q 667 868 638 883 q 703 813 696 853 q 710 727 707 782 q 711 607 713 672 q 703 474 710 542 q 681 349 697 406 q 613 207 657 263 q 514 122 569 151 q 397 88 458 92 q 275 103 335 83 q 156 169 204 125 q 78 269 108 213 q 35 393 49 326 q 20 529 22 460 q 26 666 18 599 q 44 793 33 733 q 74 843 53 824 q 122 872 94 863 q 178 878 149 881 q 233 862 208 876 q 273 821 257 847 q 289 754 289 794 l 274 581 z "},"ร":{"ha":732,"x_min":18,"x_max":713,"o":"m 508 1006 q 508 996 510 1001 q 489 963 507 986 q 470 942 478 949 q 457 933 463 936 q 447 929 451 929 q 354 992 396 964 q 289 1036 318 1015 q 258 1061 260 1057 q 265 1088 256 1069 q 288 1123 274 1106 q 319 1153 303 1140 q 343 1161 335 1165 l 508 1006 m 274 581 q 278 442 267 499 q 313 352 290 385 q 366 313 336 319 q 425 324 396 306 q 477 388 454 343 q 511 506 500 433 q 518 578 515 539 q 522 657 521 617 q 522 737 522 697 q 521 813 522 776 q 547 859 521 840 q 605 881 572 878 q 667 868 638 883 q 703 813 696 853 q 710 727 707 782 q 711 607 713 672 q 703 474 710 542 q 681 349 697 406 q 613 207 657 263 q 514 122 569 151 q 397 88 458 92 q 275 103 335 83 q 156 169 204 125 q 78 269 108 213 q 35 393 49 326 q 20 529 22 460 q 26 666 18 599 q 44 793 33 733 q 74 843 53 824 q 122 872 94 863 q 178 878 149 881 q 233 862 208 876 q 273 821 257 847 q 289 754 289 794 l 274 581 z "},"ร":{"ha":732,"x_min":18,"x_max":713,"o":"m 265 969 q 303 1052 283 1010 q 354 1126 324 1094 q 388 1149 369 1142 q 422 1156 406 1157 q 454 1145 439 1156 q 479 1115 469 1135 q 508 1031 501 1075 q 521 943 515 988 q 508 925 519 931 q 484 919 497 919 q 460 922 471 918 q 450 935 450 926 q 413 1043 432 1047 q 358 932 394 1039 q 334 920 351 922 q 300 923 317 918 q 272 940 283 928 q 265 969 261 951 m 274 581 q 278 442 267 499 q 313 352 290 385 q 366 313 336 319 q 425 324 396 306 q 477 388 454 343 q 511 506 500 433 q 518 578 515 539 q 522 657 521 617 q 522 737 522 697 q 521 813 522 776 q 547 859 521 840 q 605 881 572 878 q 667 868 638 883 q 703 813 696 853 q 710 727 707 782 q 711 607 713 672 q 703 474 710 542 q 681 349 697 406 q 613 207 657 263 q 514 122 569 151 q 397 88 458 92 q 275 103 335 83 q 156 169 204 125 q 78 269 108 213 q 35 393 49 326 q 20 529 22 460 q 26 666 18 599 q 44 793 33 733 q 74 843 53 824 q 122 872 94 863 q 178 878 149 881 q 233 862 208 876 q 273 821 257 847 q 289 754 289 794 l 274 581 z "},"ร":{"ha":732,"x_min":18,"x_max":713,"o":"m 375 990 q 357 945 375 964 q 311 926 339 926 q 265 945 283 926 q 247 990 247 964 q 265 1036 247 1018 q 311 1054 283 1054 q 357 1036 339 1054 q 375 990 375 1018 m 542 990 q 524 945 542 964 q 478 926 506 926 q 432 945 450 926 q 414 990 414 964 q 432 1036 414 1018 q 478 1054 450 1054 q 524 1036 506 1054 q 542 990 542 1018 m 274 581 q 278 442 267 499 q 313 352 290 385 q 366 313 336 319 q 425 324 396 306 q 477 388 454 343 q 511 506 500 433 q 518 578 515 539 q 522 657 521 617 q 522 737 522 697 q 521 813 522 776 q 547 859 521 840 q 605 881 572 878 q 667 868 638 883 q 703 813 696 853 q 710 727 707 782 q 711 607 713 672 q 703 474 710 542 q 681 349 697 406 q 613 207 657 263 q 514 122 569 151 q 397 88 458 92 q 275 103 335 83 q 156 169 204 125 q 78 269 108 213 q 35 393 49 326 q 20 529 22 460 q 26 666 18 599 q 44 793 33 733 q 74 843 53 824 q 122 872 94 863 q 178 878 149 881 q 233 862 208 876 q 273 821 257 847 q 289 754 289 794 l 274 581 z "},"ร":{"ha":804,"x_min":4,"x_max":800,"o":"m 479 1247 q 503 1239 488 1251 q 534 1209 519 1226 q 558 1174 549 1192 q 565 1147 568 1156 q 534 1122 563 1143 q 469 1078 506 1101 q 376 1015 428 1050 q 365 1019 371 1015 q 353 1028 360 1022 q 335 1049 346 1035 q 319 1069 324 1061 q 314 1082 315 1076 q 314 1092 313 1088 l 479 1247 m 571 1000 q 615 1015 589 1014 q 669 1007 642 1017 q 724 980 697 997 q 769 941 751 963 q 794 895 788 919 q 789 847 800 871 q 535 464 654 660 q 314 60 417 268 q 293 43 307 49 q 262 39 282 39 q 211 53 242 39 q 164 78 179 64 q 142 106 149 93 q 135 135 135 121 q 139 144 136 139 q 149 172 142 151 q 166 215 156 192 q 189 269 176 239 q 224 354 204 308 q 264 449 243 400 q 251 468 258 456 q 233 493 243 481 q 185 567 211 525 q 132 651 158 608 q 82 742 106 697 q 41 823 58 786 q 14 885 24 860 q 4 914 4 910 q 23 942 6 928 q 67 970 40 957 q 124 993 93 983 q 182 1007 154 1003 q 231 1008 210 1011 q 261 993 253 1006 q 314 833 285 911 q 379 678 343 754 q 431 772 406 726 q 478 857 456 818 q 539 956 514 918 q 571 1000 564 993 z "},"ลธ":{"ha":804,"x_min":4,"x_max":800,"o":"m 401 1097 q 383 1052 401 1071 q 338 1033 365 1033 q 292 1052 310 1033 q 274 1097 274 1071 q 292 1143 274 1125 q 338 1161 310 1161 q 383 1143 365 1161 q 401 1097 401 1125 m 568 1097 q 550 1052 568 1071 q 504 1033 532 1033 q 458 1052 476 1033 q 440 1097 440 1071 q 458 1143 440 1125 q 504 1161 476 1161 q 550 1143 532 1161 q 568 1097 568 1125 m 571 1000 q 615 1015 589 1014 q 669 1007 642 1017 q 724 980 697 997 q 769 941 751 963 q 794 895 788 919 q 789 847 800 871 q 535 464 654 660 q 314 60 417 268 q 293 43 307 49 q 262 39 282 39 q 211 53 242 39 q 164 78 179 64 q 142 106 149 93 q 135 135 135 121 q 139 144 136 139 q 149 172 142 151 q 166 215 156 192 q 189 269 176 239 q 224 354 204 308 q 264 449 243 400 q 251 468 258 456 q 233 493 243 481 q 185 567 211 525 q 132 651 158 608 q 82 742 106 697 q 41 823 58 786 q 14 885 24 860 q 4 914 4 910 q 23 942 6 928 q 67 970 40 957 q 124 993 93 983 q 182 1007 154 1003 q 231 1008 210 1011 q 261 993 253 1006 q 314 833 285 911 q 379 678 343 754 q 431 772 406 726 q 478 857 456 818 q 539 956 514 918 q 571 1000 564 993 z "},"ร":{"ha":653,"x_min":11,"x_max":633,"o":"m 518 1039 q 518 1029 519 1035 q 499 996 517 1019 q 480 976 488 982 q 467 967 472 969 q 457 963 461 963 q 364 1025 406 997 q 299 1069 328 1049 q 268 1094 269 1090 q 274 1121 265 1103 q 298 1156 283 1139 q 328 1186 313 1174 q 353 1194 344 1199 l 518 1039 m 633 138 q 624 104 632 119 q 600 80 617 92 q 553 65 583 68 q 502 73 521 63 q 472 96 483 83 q 453 129 458 111 q 450 146 451 136 q 447 166 449 154 q 444 193 446 178 q 374 188 417 190 q 286 179 332 185 q 215 173 250 175 q 150 169 179 171 q 102 165 121 167 q 79 163 83 164 q 46 169 63 158 q 20 206 29 181 q 13 273 11 232 q 32 369 14 314 q 88 551 67 481 q 123 665 110 621 q 145 735 136 710 q 164 781 154 760 q 208 853 182 821 q 266 906 235 885 q 332 938 297 928 q 401 946 367 949 q 490 913 454 942 q 550 841 526 883 q 585 747 574 799 q 601 643 597 694 q 610 547 608 585 q 614 472 611 508 l 633 138 m 354 618 q 322 501 335 560 q 292 381 310 442 q 358 376 325 378 q 425 371 392 374 q 410 494 417 433 q 393 618 403 556 q 385 653 389 643 q 376 660 381 663 q 365 647 371 658 q 354 618 360 635 z "},"รก":{"ha":653,"x_min":11,"x_max":633,"o":"m 424 1197 q 448 1189 432 1201 q 478 1159 464 1176 q 503 1124 493 1142 q 510 1097 513 1106 q 478 1072 507 1093 q 414 1028 450 1051 q 321 965 372 1000 q 310 969 315 965 q 297 978 304 972 q 279 999 290 985 q 264 1019 268 1011 q 258 1032 260 1026 q 258 1042 257 1038 l 424 1197 m 633 138 q 624 104 632 119 q 600 80 617 92 q 553 65 583 68 q 502 73 521 63 q 472 96 483 83 q 453 129 458 111 q 450 146 451 136 q 447 166 449 154 q 444 193 446 178 q 374 188 417 190 q 286 179 332 185 q 215 173 250 175 q 150 169 179 171 q 102 165 121 167 q 79 163 83 164 q 46 169 63 158 q 20 206 29 181 q 13 273 11 232 q 32 369 14 314 q 88 551 67 481 q 123 665 110 621 q 145 735 136 710 q 164 781 154 760 q 208 853 182 821 q 266 906 235 885 q 332 938 297 928 q 401 946 367 949 q 490 913 454 942 q 550 841 526 883 q 585 747 574 799 q 601 643 597 694 q 610 547 608 585 q 614 472 611 508 l 633 138 m 354 618 q 322 501 335 560 q 292 381 310 442 q 358 376 325 378 q 425 371 392 374 q 410 494 417 433 q 393 618 403 556 q 385 653 389 643 q 376 660 381 663 q 365 647 371 658 q 354 618 360 635 z "},"รข":{"ha":653,"x_min":11,"x_max":633,"o":"m 254 1026 q 292 1109 272 1067 q 343 1183 313 1151 q 376 1206 358 1199 q 411 1213 394 1214 q 443 1202 428 1213 q 468 1172 458 1192 q 497 1088 490 1132 q 510 1000 504 1044 q 497 982 508 988 q 473 976 486 976 q 449 979 460 975 q 439 992 439 983 q 402 1100 421 1104 q 347 989 383 1096 q 323 977 340 979 q 289 980 306 975 q 261 997 272 985 q 254 1026 250 1008 m 633 138 q 624 104 632 119 q 600 80 617 92 q 553 65 583 68 q 502 73 521 63 q 472 96 483 83 q 453 129 458 111 q 450 146 451 136 q 447 166 449 154 q 444 193 446 178 q 374 188 417 190 q 286 179 332 185 q 215 173 250 175 q 150 169 179 171 q 102 165 121 167 q 79 163 83 164 q 46 169 63 158 q 20 206 29 181 q 13 273 11 232 q 32 369 14 314 q 88 551 67 481 q 123 665 110 621 q 145 735 136 710 q 164 781 154 760 q 208 853 182 821 q 266 906 235 885 q 332 938 297 928 q 401 946 367 949 q 490 913 454 942 q 550 841 526 883 q 585 747 574 799 q 601 643 597 694 q 610 547 608 585 q 614 472 611 508 l 633 138 m 354 618 q 322 501 335 560 q 292 381 310 442 q 358 376 325 378 q 425 371 392 374 q 410 494 417 433 q 393 618 403 556 q 385 653 389 643 q 376 660 381 663 q 365 647 371 658 q 354 618 360 635 z "},"รฃ":{"ha":653,"x_min":11,"x_max":633,"o":"m 196 1072 q 215 1119 203 1093 q 243 1165 226 1144 q 281 1200 260 1186 q 329 1213 303 1214 q 372 1194 353 1213 q 397 1156 390 1175 q 406 1132 399 1150 q 421 1101 414 1114 q 434 1088 428 1088 q 440 1118 440 1088 q 452 1138 440 1131 q 478 1148 464 1146 q 506 1145 493 1150 q 518 1128 518 1140 q 514 1056 524 1089 q 478 999 504 1022 q 439 981 463 985 q 392 985 415 976 q 358 1011 371 994 q 336 1046 346 1028 q 322 1070 328 1067 q 311 1067 315 1074 q 303 1049 307 1061 q 293 1026 299 1036 q 268 1013 286 1015 q 232 1018 250 1011 q 201 1037 214 1024 q 196 1072 189 1050 m 633 138 q 624 104 632 119 q 600 80 617 92 q 553 65 583 68 q 502 73 521 63 q 472 96 483 83 q 453 129 458 111 q 450 146 451 136 q 447 166 449 154 q 444 193 446 178 q 374 188 417 190 q 286 179 332 185 q 215 173 250 175 q 150 169 179 171 q 102 165 121 167 q 79 163 83 164 q 46 169 63 158 q 20 206 29 181 q 13 273 11 232 q 32 369 14 314 q 88 551 67 481 q 123 665 110 621 q 145 735 136 710 q 164 781 154 760 q 208 853 182 821 q 266 906 235 885 q 332 938 297 928 q 401 946 367 949 q 490 913 454 942 q 550 841 526 883 q 585 747 574 799 q 601 643 597 694 q 610 547 608 585 q 614 472 611 508 l 633 138 m 354 618 q 322 501 335 560 q 292 381 310 442 q 358 376 325 378 q 425 371 392 374 q 410 494 417 433 q 393 618 403 556 q 385 653 389 643 q 376 660 381 663 q 365 647 371 658 q 354 618 360 635 z "},"รค":{"ha":653,"x_min":11,"x_max":633,"o":"m 364 1038 q 346 992 364 1011 q 300 974 328 974 q 254 992 272 974 q 236 1038 236 1011 q 254 1083 236 1065 q 300 1101 272 1101 q 346 1083 328 1101 q 364 1038 364 1065 m 531 1038 q 513 992 531 1011 q 467 974 494 974 q 421 992 439 974 q 403 1038 403 1011 q 421 1083 403 1065 q 467 1101 439 1101 q 513 1083 494 1101 q 531 1038 531 1065 m 633 138 q 624 104 632 119 q 600 80 617 92 q 553 65 583 68 q 502 73 521 63 q 472 96 483 83 q 453 129 458 111 q 450 146 451 136 q 447 166 449 154 q 444 193 446 178 q 374 188 417 190 q 286 179 332 185 q 215 173 250 175 q 150 169 179 171 q 102 165 121 167 q 79 163 83 164 q 46 169 63 158 q 20 206 29 181 q 13 273 11 232 q 32 369 14 314 q 88 551 67 481 q 123 665 110 621 q 145 735 136 710 q 164 781 154 760 q 208 853 182 821 q 266 906 235 885 q 332 938 297 928 q 401 946 367 949 q 490 913 454 942 q 550 841 526 883 q 585 747 574 799 q 601 643 597 694 q 610 547 608 585 q 614 472 611 508 l 633 138 m 354 618 q 322 501 335 560 q 292 381 310 442 q 358 376 325 378 q 425 371 392 374 q 410 494 417 433 q 393 618 403 556 q 385 653 389 643 q 376 660 381 663 q 365 647 371 658 q 354 618 360 635 z "},"รฅ":{"ha":653,"x_min":11,"x_max":633,"o":"m 378 969 q 302 1001 333 969 q 271 1078 271 1032 q 302 1153 271 1122 q 378 1183 333 1183 q 453 1153 422 1183 q 485 1078 485 1122 q 453 1001 485 1032 q 378 969 422 969 m 378 1119 q 349 1108 360 1119 q 339 1081 339 1096 q 378 1038 339 1038 q 417 1081 417 1038 q 406 1108 417 1096 q 378 1119 396 1119 m 633 138 q 624 104 632 119 q 600 80 617 92 q 553 65 583 68 q 502 73 521 63 q 472 96 483 83 q 453 129 458 111 q 450 146 451 136 q 447 166 449 154 q 444 193 446 178 q 374 188 417 190 q 286 179 332 185 q 215 173 250 175 q 150 169 179 171 q 102 165 121 167 q 79 163 83 164 q 46 169 63 158 q 20 206 29 181 q 13 273 11 232 q 32 369 14 314 q 88 551 67 481 q 123 665 110 621 q 145 735 136 710 q 164 781 154 760 q 208 853 182 821 q 266 906 235 885 q 332 938 297 928 q 401 946 367 949 q 490 913 454 942 q 550 841 526 883 q 585 747 574 799 q 601 643 597 694 q 610 547 608 585 q 614 472 611 508 l 633 138 m 354 618 q 322 501 335 560 q 292 381 310 442 q 358 376 325 378 q 425 371 392 374 q 410 494 417 433 q 393 618 403 556 q 385 653 389 643 q 376 660 381 663 q 365 647 371 658 q 354 618 360 635 z "},"รจ":{"ha":560,"x_min":15,"x_max":542,"o":"m 414 1050 q 414 1040 415 1046 q 394 1007 413 1031 q 376 987 383 993 q 363 978 368 981 q 353 974 357 974 q 260 1036 301 1008 q 194 1081 224 1060 q 164 1106 165 1101 q 170 1132 161 1114 q 194 1167 179 1150 q 224 1197 208 1185 q 249 1206 240 1210 l 414 1050 m 475 360 q 494 339 485 356 q 511 298 504 322 q 523 247 518 274 q 527 196 528 219 q 521 155 526 172 q 504 133 515 138 l 72 103 q 60 113 65 104 q 48 135 54 119 q 36 178 42 150 q 32 223 31 206 q 36 250 33 240 q 44 267 40 261 q 47 268 46 267 q 54 271 49 268 q 50 349 51 307 q 49 436 49 392 l 36 438 q 26 450 32 440 q 19 474 22 458 q 15 518 15 490 q 19 563 15 546 q 26 590 22 581 q 38 606 32 601 l 50 606 l 50 760 q 43 794 46 772 q 42 838 40 815 q 49 882 43 861 q 67 911 56 903 q 135 915 99 913 q 205 919 165 918 q 286 924 244 921 q 368 925 328 925 q 441 924 408 925 q 494 922 474 924 q 518 918 515 921 q 537 874 532 910 q 538 798 542 838 q 521 726 533 758 q 490 692 508 694 q 393 706 442 699 q 294 718 344 713 q 292 672 293 694 q 288 626 290 650 q 402 633 353 631 q 458 632 451 635 q 477 589 471 624 q 483 515 483 554 q 473 442 482 475 q 447 404 464 408 l 261 419 q 256 367 258 393 q 251 317 254 342 q 330 333 292 325 q 399 348 368 342 q 451 358 431 354 q 475 360 471 361 z "},"รฉ":{"ha":560,"x_min":15,"x_max":542,"o":"m 308 1200 q 333 1192 317 1204 q 363 1162 349 1179 q 388 1126 378 1144 q 394 1100 397 1108 q 363 1075 392 1096 q 299 1031 335 1054 q 206 968 257 1003 q 194 972 200 968 q 182 981 189 975 q 164 1001 175 988 q 149 1022 153 1014 q 143 1035 144 1029 q 143 1044 142 1040 l 308 1200 m 475 360 q 494 339 485 356 q 511 298 504 322 q 523 247 518 274 q 527 196 528 219 q 521 155 526 172 q 504 133 515 138 l 72 103 q 60 113 65 104 q 48 135 54 119 q 36 178 42 150 q 32 223 31 206 q 36 250 33 240 q 44 267 40 261 q 47 268 46 267 q 54 271 49 268 q 50 349 51 307 q 49 436 49 392 l 36 438 q 26 450 32 440 q 19 474 22 458 q 15 518 15 490 q 19 563 15 546 q 26 590 22 581 q 38 606 32 601 l 50 606 l 50 760 q 43 794 46 772 q 42 838 40 815 q 49 882 43 861 q 67 911 56 903 q 135 915 99 913 q 205 919 165 918 q 286 924 244 921 q 368 925 328 925 q 441 924 408 925 q 494 922 474 924 q 518 918 515 921 q 537 874 532 910 q 538 798 542 838 q 521 726 533 758 q 490 692 508 694 q 393 706 442 699 q 294 718 344 713 q 292 672 293 694 q 288 626 290 650 q 402 633 353 631 q 458 632 451 635 q 477 589 471 624 q 483 515 483 554 q 473 442 482 475 q 447 404 464 408 l 261 419 q 256 367 258 393 q 251 317 254 342 q 330 333 292 325 q 399 348 368 342 q 451 358 431 354 q 475 360 471 361 z "},"รช":{"ha":560,"x_min":15,"x_max":542,"o":"m 147 1017 q 185 1099 165 1057 q 236 1174 206 1142 q 269 1197 251 1189 q 304 1203 288 1204 q 336 1192 321 1203 q 361 1163 351 1182 q 390 1078 383 1122 q 403 990 397 1035 q 390 972 401 978 q 366 966 379 967 q 342 969 353 965 q 332 982 332 974 q 295 1090 314 1094 q 240 979 276 1086 q 216 967 233 969 q 182 970 199 965 q 154 987 165 975 q 147 1017 143 999 m 475 360 q 494 339 485 356 q 511 298 504 322 q 523 247 518 274 q 527 196 528 219 q 521 155 526 172 q 504 133 515 138 l 72 103 q 60 113 65 104 q 48 135 54 119 q 36 178 42 150 q 32 223 31 206 q 36 250 33 240 q 44 267 40 261 q 47 268 46 267 q 54 271 49 268 q 50 349 51 307 q 49 436 49 392 l 36 438 q 26 450 32 440 q 19 474 22 458 q 15 518 15 490 q 19 563 15 546 q 26 590 22 581 q 38 606 32 601 l 50 606 l 50 760 q 43 794 46 772 q 42 838 40 815 q 49 882 43 861 q 67 911 56 903 q 135 915 99 913 q 205 919 165 918 q 286 924 244 921 q 368 925 328 925 q 441 924 408 925 q 494 922 474 924 q 518 918 515 921 q 537 874 532 910 q 538 798 542 838 q 521 726 533 758 q 490 692 508 694 q 393 706 442 699 q 294 718 344 713 q 292 672 293 694 q 288 626 290 650 q 402 633 353 631 q 458 632 451 635 q 477 589 471 624 q 483 515 483 554 q 473 442 482 475 q 447 404 464 408 l 261 419 q 256 367 258 393 q 251 317 254 342 q 330 333 292 325 q 399 348 368 342 q 451 358 431 354 q 475 360 471 361 z "},"รซ":{"ha":560,"x_min":15,"x_max":542,"o":"m 269 1025 q 251 980 269 999 q 206 961 233 961 q 160 980 178 961 q 142 1025 142 999 q 160 1071 142 1053 q 206 1089 178 1089 q 251 1071 233 1089 q 269 1025 269 1053 m 436 1025 q 418 980 436 999 q 372 961 400 961 q 326 980 344 961 q 308 1025 308 999 q 326 1071 308 1053 q 372 1089 344 1089 q 418 1071 400 1089 q 436 1025 436 1053 m 475 360 q 494 339 485 356 q 511 298 504 322 q 523 247 518 274 q 527 196 528 219 q 521 155 526 172 q 504 133 515 138 l 72 103 q 60 113 65 104 q 48 135 54 119 q 36 178 42 150 q 32 223 31 206 q 36 250 33 240 q 44 267 40 261 q 47 268 46 267 q 54 271 49 268 q 50 349 51 307 q 49 436 49 392 l 36 438 q 26 450 32 440 q 19 474 22 458 q 15 518 15 490 q 19 563 15 546 q 26 590 22 581 q 38 606 32 601 l 50 606 l 50 760 q 43 794 46 772 q 42 838 40 815 q 49 882 43 861 q 67 911 56 903 q 135 915 99 913 q 205 919 165 918 q 286 924 244 921 q 368 925 328 925 q 441 924 408 925 q 494 922 474 924 q 518 918 515 921 q 537 874 532 910 q 538 798 542 838 q 521 726 533 758 q 490 692 508 694 q 393 706 442 699 q 294 718 344 713 q 292 672 293 694 q 288 626 290 650 q 402 633 353 631 q 458 632 451 635 q 477 589 471 624 q 483 515 483 554 q 473 442 482 475 q 447 404 464 408 l 261 419 q 256 367 258 393 q 251 317 254 342 q 330 333 292 325 q 399 348 368 342 q 451 358 431 354 q 475 360 471 361 z "},"รฌ":{"ha":276,"x_min":15,"x_max":272,"o":"m 271 965 q 271 956 272 961 q 251 922 269 946 q 233 902 240 908 q 219 893 225 896 q 210 889 214 889 q 117 951 158 924 q 51 996 81 975 q 21 1021 22 1017 q 27 1047 18 1029 q 51 1083 36 1065 q 81 1113 65 1100 q 106 1121 97 1125 l 271 965 m 265 806 q 203 167 246 482 q 190 153 200 158 q 164 144 182 147 q 115 143 146 140 q 66 152 83 146 q 39 165 49 158 q 24 183 28 174 l 24 279 q 23 378 24 322 q 21 492 22 433 q 19 606 21 550 q 17 708 18 663 q 15 783 15 753 q 17 818 15 813 q 64 850 25 839 q 146 861 103 861 q 225 848 189 861 q 265 806 261 835 z "},"รญ":{"ha":276,"x_min":7,"x_max":265,"o":"m 174 1125 q 198 1117 182 1129 q 228 1087 214 1104 q 253 1051 243 1069 q 260 1025 263 1033 q 228 1000 257 1021 q 164 956 200 979 q 71 893 122 928 q 60 897 65 893 q 47 906 54 900 q 29 926 40 913 q 14 947 18 939 q 8 960 10 954 q 8 969 7 965 l 174 1125 m 265 806 q 203 167 246 482 q 190 153 200 158 q 164 144 182 147 q 115 143 146 140 q 66 152 83 146 q 39 165 49 158 q 24 183 28 174 l 24 279 q 23 378 24 322 q 21 492 22 433 q 19 606 21 550 q 17 708 18 663 q 15 783 15 753 q 17 818 15 813 q 64 850 25 839 q 146 861 103 861 q 225 848 189 861 q 265 806 261 835 z "},"รฎ":{"ha":276,"x_min":13,"x_max":272,"o":"m 17 935 q 55 1017 35 975 q 106 1092 75 1060 q 139 1115 121 1107 q 174 1122 157 1122 q 206 1110 190 1121 q 231 1081 221 1100 q 260 997 253 1040 q 272 908 267 953 q 260 890 271 896 q 235 884 249 885 q 212 888 222 883 q 201 900 201 892 q 165 1008 183 1013 q 110 897 146 1004 q 85 885 103 888 q 51 888 68 883 q 24 905 35 893 q 17 935 13 917 m 265 806 q 203 167 246 482 q 190 153 200 158 q 164 144 182 147 q 115 143 146 140 q 66 152 83 146 q 39 165 49 158 q 24 183 28 174 l 24 279 q 23 378 24 322 q 21 492 22 433 q 19 606 21 550 q 17 708 18 663 q 15 783 15 753 q 17 818 15 813 q 64 850 25 839 q 146 861 103 861 q 225 848 189 861 q 265 806 261 835 z "},"รฏ":{"ha":276,"x_min":8,"x_max":303,"o":"m 136 963 q 118 917 136 936 q 72 899 100 899 q 26 917 44 899 q 8 963 8 936 q 26 1008 8 990 q 72 1026 44 1026 q 118 1008 100 1026 q 136 963 136 990 m 303 963 q 285 917 303 936 q 239 899 267 899 q 193 917 211 899 q 175 963 175 936 q 193 1008 175 990 q 239 1026 211 1026 q 285 1008 267 1026 q 303 963 303 990 m 265 806 q 203 167 246 482 q 190 153 200 158 q 164 144 182 147 q 115 143 146 140 q 66 152 83 146 q 39 165 49 158 q 24 183 28 174 l 24 279 q 23 378 24 322 q 21 492 22 433 q 19 606 21 550 q 17 708 18 663 q 15 783 15 753 q 17 818 15 813 q 64 850 25 839 q 146 861 103 861 q 225 848 189 861 q 265 806 261 835 z "},"รฑ":{"ha":751,"x_min":21,"x_max":735,"o":"m 218 1047 q 237 1094 225 1068 q 265 1140 249 1119 q 303 1175 282 1161 q 351 1188 325 1189 q 394 1169 375 1188 q 419 1131 413 1150 q 428 1107 421 1125 q 443 1076 436 1089 q 456 1063 450 1063 q 463 1093 463 1063 q 474 1113 463 1106 q 501 1123 486 1121 q 528 1120 515 1125 q 540 1103 540 1115 q 536 1031 546 1064 q 500 974 526 997 q 461 956 485 960 q 414 960 438 951 q 381 986 393 969 q 358 1021 368 1003 q 344 1045 350 1042 q 333 1042 338 1049 q 325 1024 329 1036 q 315 1001 321 1011 q 290 988 308 990 q 254 993 272 986 q 224 1012 236 999 q 218 1047 211 1025 m 490 908 q 539 944 500 933 q 621 951 578 954 q 699 929 664 947 q 735 878 733 911 q 696 506 714 692 q 663 133 678 321 q 640 94 663 110 q 585 74 617 78 q 523 84 554 71 q 475 131 492 97 q 399 244 438 185 q 324 359 365 296 q 240 486 282 422 q 224 312 231 399 q 210 138 217 225 q 197 122 207 129 q 171 110 189 115 q 122 107 153 106 q 72 115 90 108 q 43 128 54 121 q 26 147 31 136 q 24 250 25 194 q 22 357 22 297 q 21 481 21 417 q 22 606 21 544 q 24 718 22 668 q 27 801 25 768 q 29 839 29 833 q 71 894 33 874 q 153 920 108 915 q 239 913 197 925 q 293 871 281 901 l 476 518 q 478 655 476 588 q 481 776 479 722 q 485 866 482 831 q 490 908 488 901 z "},"รฒ":{"ha":676,"x_min":8,"x_max":663,"o":"m 478 1011 q 478 1001 479 1007 q 458 968 476 992 q 440 948 447 954 q 426 939 432 942 q 417 935 421 935 q 324 997 365 969 q 258 1042 288 1021 q 228 1067 229 1063 q 234 1093 225 1075 q 258 1128 243 1111 q 288 1158 272 1146 q 313 1167 304 1171 l 478 1011 m 493 825 q 555 785 529 818 q 600 719 581 753 q 650 573 638 656 q 650 408 663 490 q 599 255 638 326 q 496 142 561 183 q 408 105 454 115 q 316 100 363 94 q 225 126 269 106 q 143 182 181 146 q 39 353 69 251 q 24 560 8 456 q 58 669 33 617 q 120 765 83 722 q 205 840 157 808 q 310 885 253 871 q 359 892 332 890 q 412 890 386 894 q 459 870 438 885 q 493 828 481 856 l 493 825 m 253 486 q 265 386 250 425 q 302 329 279 347 q 353 313 325 311 q 406 335 381 315 q 449 394 431 356 q 469 486 467 432 q 461 561 471 518 q 435 632 451 604 q 425 649 431 640 q 414 664 419 657 q 379 646 397 650 q 360 641 369 643 q 340 635 350 639 q 276 576 297 618 q 253 486 256 535 z "},"รณ":{"ha":676,"x_min":8,"x_max":663,"o":"m 394 1146 q 419 1138 403 1150 q 449 1108 435 1125 q 474 1072 464 1090 q 481 1046 483 1054 q 449 1021 478 1042 q 385 976 421 1000 q 292 914 343 949 q 281 918 286 914 q 268 927 275 921 q 250 947 261 933 q 235 967 239 960 q 229 981 231 975 q 229 990 228 986 l 394 1146 m 493 825 q 555 785 529 818 q 600 719 581 753 q 650 573 638 656 q 650 408 663 490 q 599 255 638 326 q 496 142 561 183 q 408 105 454 115 q 316 100 363 94 q 225 126 269 106 q 143 182 181 146 q 39 353 69 251 q 24 560 8 456 q 58 669 33 617 q 120 765 83 722 q 205 840 157 808 q 310 885 253 871 q 359 892 332 890 q 412 890 386 894 q 459 870 438 885 q 493 828 481 856 l 493 825 m 253 486 q 265 386 250 425 q 302 329 279 347 q 353 313 325 311 q 406 335 381 315 q 449 394 431 356 q 469 486 467 432 q 461 561 471 518 q 435 632 451 604 q 425 649 431 640 q 414 664 419 657 q 379 646 397 650 q 360 641 369 643 q 340 635 350 639 q 276 576 297 618 q 253 486 256 535 z "},"รด":{"ha":676,"x_min":8,"x_max":663,"o":"m 236 968 q 274 1051 254 1008 q 325 1125 294 1093 q 358 1148 340 1140 q 393 1155 376 1156 q 425 1144 410 1154 q 450 1114 440 1133 q 479 1030 472 1074 q 492 942 486 986 q 479 924 490 929 q 455 917 468 918 q 431 921 442 917 q 421 933 421 925 q 384 1042 403 1046 q 329 931 365 1038 q 305 919 322 921 q 271 922 288 917 q 243 938 254 926 q 236 968 232 950 m 493 825 q 555 785 529 818 q 600 719 581 753 q 650 573 638 656 q 650 408 663 490 q 599 255 638 326 q 496 142 561 183 q 408 105 454 115 q 316 100 363 94 q 225 126 269 106 q 143 182 181 146 q 39 353 69 251 q 24 560 8 456 q 58 669 33 617 q 120 765 83 722 q 205 840 157 808 q 310 885 253 871 q 359 892 332 890 q 412 890 386 894 q 459 870 438 885 q 493 828 481 856 l 493 825 m 253 486 q 265 386 250 425 q 302 329 279 347 q 353 313 325 311 q 406 335 381 315 q 449 394 431 356 q 469 486 467 432 q 461 561 471 518 q 435 632 451 604 q 425 649 431 640 q 414 664 419 657 q 379 646 397 650 q 360 641 369 643 q 340 635 350 639 q 276 576 297 618 q 253 486 256 535 z "},"รต":{"ha":676,"x_min":8,"x_max":663,"o":"m 189 1018 q 208 1065 196 1039 q 236 1111 219 1090 q 274 1146 253 1132 q 322 1158 296 1160 q 365 1140 346 1158 q 390 1101 383 1121 q 399 1078 392 1096 q 414 1047 407 1060 q 427 1033 421 1033 q 433 1064 433 1033 q 445 1084 433 1076 q 472 1094 457 1092 q 499 1091 486 1096 q 511 1074 511 1086 q 507 1001 517 1035 q 471 944 497 968 q 432 926 456 931 q 385 931 408 922 q 351 957 364 940 q 329 992 339 974 q 315 1016 321 1013 q 304 1013 308 1019 q 296 994 300 1007 q 286 972 292 982 q 261 959 279 961 q 225 964 243 957 q 194 983 207 969 q 189 1018 182 996 m 493 825 q 555 785 529 818 q 600 719 581 753 q 650 573 638 656 q 650 408 663 490 q 599 255 638 326 q 496 142 561 183 q 408 105 454 115 q 316 100 363 94 q 225 126 269 106 q 143 182 181 146 q 39 353 69 251 q 24 560 8 456 q 58 669 33 617 q 120 765 83 722 q 205 840 157 808 q 310 885 253 871 q 359 892 332 890 q 412 890 386 894 q 459 870 438 885 q 493 828 481 856 l 493 825 m 253 486 q 265 386 250 425 q 302 329 279 347 q 353 313 325 311 q 406 335 381 315 q 449 394 431 356 q 469 486 467 432 q 461 561 471 518 q 435 632 451 604 q 425 649 431 640 q 414 664 419 657 q 379 646 397 650 q 360 641 369 643 q 340 635 350 639 q 276 576 297 618 q 253 486 256 535 z "},"รถ":{"ha":676,"x_min":8,"x_max":663,"o":"m 343 968 q 325 923 343 942 q 279 904 307 904 q 233 923 251 904 q 215 968 215 942 q 233 1014 215 996 q 279 1032 251 1032 q 325 1014 307 1032 q 343 968 343 996 m 510 968 q 492 923 510 942 q 446 904 474 904 q 400 923 418 904 q 382 968 382 942 q 400 1014 382 996 q 446 1032 418 1032 q 492 1014 474 1032 q 510 968 510 996 m 493 825 q 555 785 529 818 q 600 719 581 753 q 650 573 638 656 q 650 408 663 490 q 599 255 638 326 q 496 142 561 183 q 408 105 454 115 q 316 100 363 94 q 225 126 269 106 q 143 182 181 146 q 39 353 69 251 q 24 560 8 456 q 58 669 33 617 q 120 765 83 722 q 205 840 157 808 q 310 885 253 871 q 359 892 332 890 q 412 890 386 894 q 459 870 438 885 q 493 828 481 856 l 493 825 m 253 486 q 265 386 250 425 q 302 329 279 347 q 353 313 325 311 q 406 335 381 315 q 449 394 431 356 q 469 486 467 432 q 461 561 471 518 q 435 632 451 604 q 425 649 431 640 q 414 664 419 657 q 379 646 397 650 q 360 641 369 643 q 340 635 350 639 q 276 576 297 618 q 253 486 256 535 z "},"รน":{"ha":785,"x_min":18,"x_max":769,"o":"m 521 1035 q 521 1025 522 1031 q 501 992 519 1015 q 483 972 490 978 q 469 963 475 965 q 460 958 464 958 q 367 1021 408 993 q 301 1065 331 1044 q 271 1090 272 1086 q 277 1117 268 1099 q 301 1152 286 1135 q 331 1182 315 1169 q 356 1190 347 1194 l 521 1035 m 769 903 q 746 506 761 704 q 708 110 731 308 q 694 92 706 99 q 667 80 685 85 q 618 78 649 75 q 569 88 586 81 q 542 104 551 96 q 526 126 531 114 l 526 128 q 403 88 468 93 q 275 103 338 83 q 156 169 204 125 q 78 269 108 213 q 35 393 49 326 q 20 529 22 460 q 26 666 18 599 q 44 793 33 733 q 74 843 53 824 q 122 872 94 863 q 178 878 149 881 q 233 862 208 876 q 273 821 257 847 q 289 754 289 794 l 274 581 q 278 442 267 499 q 313 352 290 385 q 366 313 336 319 q 425 324 396 306 q 477 388 454 343 q 511 506 500 433 q 521 625 518 558 q 522 754 524 692 q 519 864 519 821 q 521 914 518 907 q 547 944 526 932 q 593 962 567 956 q 649 969 619 968 q 705 962 679 969 q 749 940 731 954 q 769 903 767 925 z "},"รบ":{"ha":785,"x_min":18,"x_max":769,"o":"m 446 1169 q 470 1161 454 1174 q 501 1131 486 1149 q 525 1096 515 1114 q 532 1069 535 1078 q 501 1044 529 1065 q 436 1000 472 1024 q 343 938 394 972 q 332 942 338 938 q 319 951 326 944 q 301 971 313 957 q 286 991 290 983 q 281 1004 282 999 q 281 1014 279 1010 l 446 1169 m 769 903 q 746 506 761 704 q 708 110 731 308 q 694 92 706 99 q 667 80 685 85 q 618 78 649 75 q 569 88 586 81 q 542 104 551 96 q 526 126 531 114 l 526 128 q 403 88 468 93 q 275 103 338 83 q 156 169 204 125 q 78 269 108 213 q 35 393 49 326 q 20 529 22 460 q 26 666 18 599 q 44 793 33 733 q 74 843 53 824 q 122 872 94 863 q 178 878 149 881 q 233 862 208 876 q 273 821 257 847 q 289 754 289 794 l 274 581 q 278 442 267 499 q 313 352 290 385 q 366 313 336 319 q 425 324 396 306 q 477 388 454 343 q 511 506 500 433 q 521 625 518 558 q 522 754 524 692 q 519 864 519 821 q 521 914 518 907 q 547 944 526 932 q 593 962 567 956 q 649 969 619 968 q 705 962 679 969 q 749 940 731 954 q 769 903 767 925 z "},"รป":{"ha":785,"x_min":18,"x_max":769,"o":"m 269 1013 q 308 1095 288 1053 q 358 1169 328 1138 q 392 1192 374 1185 q 426 1199 410 1200 q 458 1188 443 1199 q 483 1158 474 1178 q 513 1074 506 1118 q 525 986 519 1031 q 513 968 524 974 q 488 962 501 963 q 465 965 475 961 q 454 978 454 969 q 417 1086 436 1090 q 363 975 399 1082 q 338 963 356 965 q 304 966 321 961 q 276 983 288 971 q 269 1013 265 994 m 769 903 q 746 506 761 704 q 708 110 731 308 q 694 92 706 99 q 667 80 685 85 q 618 78 649 75 q 569 88 586 81 q 542 104 551 96 q 526 126 531 114 l 526 128 q 403 88 468 93 q 275 103 338 83 q 156 169 204 125 q 78 269 108 213 q 35 393 49 326 q 20 529 22 460 q 26 666 18 599 q 44 793 33 733 q 74 843 53 824 q 122 872 94 863 q 178 878 149 881 q 233 862 208 876 q 273 821 257 847 q 289 754 289 794 l 274 581 q 278 442 267 499 q 313 352 290 385 q 366 313 336 319 q 425 324 396 306 q 477 388 454 343 q 511 506 500 433 q 521 625 518 558 q 522 754 524 692 q 519 864 519 821 q 521 914 518 907 q 547 944 526 932 q 593 962 567 956 q 649 969 619 968 q 705 962 679 969 q 749 940 731 954 q 769 903 767 925 z "},"รผ":{"ha":785,"x_min":18,"x_max":769,"o":"m 375 1043 q 357 998 375 1017 q 311 979 339 979 q 265 998 283 979 q 247 1043 247 1017 q 265 1089 247 1071 q 311 1107 283 1107 q 357 1089 339 1107 q 375 1043 375 1071 m 542 1043 q 524 998 542 1017 q 478 979 506 979 q 432 998 450 979 q 414 1043 414 1017 q 432 1089 414 1071 q 478 1107 450 1107 q 524 1089 506 1107 q 542 1043 542 1071 m 769 903 q 746 506 761 704 q 708 110 731 308 q 694 92 706 99 q 667 80 685 85 q 618 78 649 75 q 569 88 586 81 q 542 104 551 96 q 526 126 531 114 l 526 128 q 403 88 468 93 q 275 103 338 83 q 156 169 204 125 q 78 269 108 213 q 35 393 49 326 q 20 529 22 460 q 26 666 18 599 q 44 793 33 733 q 74 843 53 824 q 122 872 94 863 q 178 878 149 881 q 233 862 208 876 q 273 821 257 847 q 289 754 289 794 l 274 581 q 278 442 267 499 q 313 352 290 385 q 366 313 336 319 q 425 324 396 306 q 477 388 454 343 q 511 506 500 433 q 521 625 518 558 q 522 754 524 692 q 519 864 519 821 q 521 914 518 907 q 547 944 526 932 q 593 962 567 956 q 649 969 619 968 q 705 962 679 969 q 749 940 731 954 q 769 903 767 925 z "},"รฝ":{"ha":746,"x_min":21,"x_max":728,"o":"m 421 1175 q 445 1167 429 1179 q 476 1137 461 1154 q 500 1101 490 1119 q 507 1075 510 1083 q 476 1050 504 1071 q 411 1006 447 1029 q 318 943 369 978 q 307 947 313 943 q 294 956 301 950 q 276 976 288 963 q 261 997 265 989 q 256 1010 257 1004 q 256 1019 254 1015 l 421 1175 m 481 901 q 506 943 486 926 q 553 968 526 960 q 610 975 581 976 q 666 963 640 974 q 709 930 692 951 q 728 875 726 908 l 713 590 q 694 353 704 450 q 660 191 683 257 q 599 84 638 125 q 494 17 560 43 q 402 -12 451 -1 q 299 -21 353 -22 q 192 -6 246 -19 q 83 39 138 8 q 59 84 61 51 q 69 149 57 117 q 105 204 82 182 q 157 219 128 226 q 251 194 200 203 q 349 192 303 185 q 430 228 394 199 q 476 319 465 258 q 281 317 364 294 q 141 397 197 339 q 56 542 85 454 q 22 736 26 629 q 22 793 21 768 q 25 836 24 818 q 39 878 26 863 q 70 901 51 894 q 113 909 89 908 q 161 907 136 910 q 239 885 206 903 q 275 839 272 868 q 271 799 272 819 q 267 757 269 778 q 293 574 261 640 q 366 499 325 508 q 442 539 407 490 q 476 699 476 588 q 477 837 476 782 q 481 901 478 892 z "},"รฟ":{"ha":746,"x_min":21,"x_max":728,"o":"m 365 1040 q 347 995 365 1014 q 301 976 329 976 q 256 995 274 976 q 238 1040 238 1014 q 256 1086 238 1068 q 301 1104 274 1104 q 347 1086 329 1104 q 365 1040 365 1068 m 532 1040 q 514 995 532 1014 q 468 976 496 976 q 422 995 440 976 q 404 1040 404 1014 q 422 1086 404 1068 q 468 1104 440 1104 q 514 1086 496 1104 q 532 1040 532 1068 m 481 901 q 506 943 486 926 q 553 968 526 960 q 610 975 581 976 q 666 963 640 974 q 709 930 692 951 q 728 875 726 908 l 713 590 q 694 353 704 450 q 660 191 683 257 q 599 84 638 125 q 494 17 560 43 q 402 -12 451 -1 q 299 -21 353 -22 q 192 -6 246 -19 q 83 39 138 8 q 59 84 61 51 q 69 149 57 117 q 105 204 82 182 q 157 219 128 226 q 251 194 200 203 q 349 192 303 185 q 430 228 394 199 q 476 319 465 258 q 281 317 364 294 q 141 397 197 339 q 56 542 85 454 q 22 736 26 629 q 22 793 21 768 q 25 836 24 818 q 39 878 26 863 q 70 901 51 894 q 113 909 89 908 q 161 907 136 910 q 239 885 206 903 q 275 839 272 868 q 271 799 272 819 q 267 757 269 778 q 293 574 261 640 q 366 499 325 508 q 442 539 407 490 q 476 699 476 588 q 477 837 476 782 q 481 901 478 892 z "},"A":{"ha":790,"x_min":7,"x_max":772,"o":"m 772 167 q 772 153 772 160 q 769 138 772 146 q 750 106 764 122 q 706 81 736 90 q 655 82 676 72 q 619 106 633 92 q 590 167 599 128 q 575 238 582 206 q 499 233 535 235 q 426 231 463 232 q 353 228 390 231 q 276 222 317 226 q 272 201 275 215 q 265 174 268 188 q 258 149 261 160 q 254 136 254 138 q 195 59 238 83 q 110 42 153 35 q 38 88 68 49 q 14 200 7 126 q 49 377 28 275 q 99 584 69 479 q 170 784 129 689 q 265 942 211 879 q 342 1003 300 981 q 428 1029 385 1026 q 515 1012 472 1032 q 593 944 557 992 q 648 844 624 903 q 691 719 672 786 q 724 578 710 651 q 747 433 738 504 q 762 296 756 361 q 772 179 768 231 l 772 167 m 307 418 q 425 419 367 419 q 543 415 483 418 q 508 585 528 500 q 456 754 489 671 q 436 780 447 774 q 408 756 425 786 q 379 689 393 731 q 351 599 365 647 q 326 503 338 551 q 307 418 315 454 z "},"B":{"ha":776,"x_min":13,"x_max":757,"o":"m 756 346 q 756 312 757 328 q 753 279 756 296 q 679 140 735 193 q 548 62 624 88 q 386 35 472 36 q 222 49 300 33 q 165 38 203 38 q 115 44 133 38 q 86 60 97 51 q 69 82 74 69 l 63 214 q 55 347 60 272 q 46 500 50 421 q 33 655 39 579 q 22 792 28 731 q 17 847 19 822 q 13 890 15 872 q 13 915 13 904 q 15 935 13 926 q 26 953 18 944 q 50 974 35 963 q 84 994 65 985 q 123 1010 103 1004 q 164 1016 143 1015 q 206 1010 185 1017 q 233 994 219 1007 q 342 1009 283 1004 q 460 1006 401 1014 q 569 972 518 997 q 656 900 621 947 q 691 823 681 865 q 694 737 701 781 q 660 651 688 693 q 586 571 633 608 l 585 569 q 645 531 615 553 q 699 481 675 508 q 738 419 724 453 q 756 346 753 386 m 267 843 q 266 817 267 831 q 265 785 265 804 q 265 736 265 765 q 264 664 264 707 q 335 673 299 660 q 400 708 372 686 q 442 757 428 731 q 444 805 456 783 q 392 838 433 826 q 267 843 350 850 m 257 231 q 397 224 340 215 q 483 255 454 233 q 514 305 513 276 q 488 358 515 333 q 404 399 461 383 q 261 410 347 415 l 257 231 z "},"C":{"ha":750,"x_min":3,"x_max":736,"o":"m 503 682 q 365 658 419 692 q 285 569 311 625 q 260 449 258 514 q 288 333 261 385 q 365 253 314 281 q 492 244 417 225 q 549 267 521 251 q 606 301 578 282 q 675 308 644 319 q 719 267 706 296 q 726 203 733 239 q 683 136 719 167 q 568 67 631 92 q 440 39 506 43 q 313 51 375 35 q 199 101 250 67 q 81 226 128 150 q 21 392 35 301 q 34 606 3 506 q 132 783 65 707 q 294 903 199 858 q 500 951 389 949 q 594 941 544 953 q 679 906 643 929 q 725 840 714 881 q 727 760 736 800 q 691 688 718 719 q 622 650 664 657 q 592 652 607 647 q 564 663 578 657 q 535 675 550 669 q 503 682 519 681 z "}}}
